<svg xmlns="http://www.w3.org/2000/svg" xmlns:xlink="http://www.w3.org/1999/xlink"
     viewBox="0 0 24 24" fill="none">
    <defs>
        <rect id="path_0" x="0" y="0" width="24" height="24"/>
    </defs>
    <g opacity="1" transform="translate(0 0)  rotate(0 12 12)">
        <mask id="bg-mask-0" fill="white">
            <use xlink:href="#path_0"></use>
        </mask>
        <g mask="url(#bg-mask-0)">
            <g opacity="1" transform="translate(0 0)  rotate(0 12 12)">
                <path id="_椭圆形" fill-rule="evenodd" style="fill:#ffb7c5" transform="translate(0 0)  rotate(0 12 12)"
                      opacity="1"
                      d="M0,12C0,18.63 5.37,24 12,24C18.63,24 24,18.63 24,12C24,5.37 18.63,0 12,0C5.37,0 0,5.37 0,12Z "/>
                <g opacity="1"
                   transform="translate(5.454545454545454 5.454545454545454)  rotate(0 6.545454545454546 6.545454545454546)">
                    <path id="_形状" fill-rule="evenodd" style="fill:#FFFFFF"
                          transform="translate(0 0)  rotate(0 3.6818181818181817 6.545454545454546)" opacity="1"
                          d="M5.73,5.73L0.82,5.73C0.37,5.73 0,6.09 0,6.55C0,7 0.37,7.36 0.82,7.36L5.73,7.36L5.73,12.27C5.73,12.72 6.09,13.09 6.55,13.09C7,13.09 7.36,12.72 7.36,12.27L7.36,0.82C7.36,0.37 7,0 6.55,0C6.09,0 5.73,0.37 5.73,0.82L5.73,5.73Z "/>
                    <path id="_形状" fill-rule="evenodd" style="fill:#FFFFFF"
                          transform="translate(8.454545454545453 5.7272727272727275)  rotate(0 2.3181818181818183 0.8181818181818182)"
                          opacity="1"
                          d="M0,1.64L3.82,1.64C4.27,1.64 4.64,1.27 4.64,0.82C4.64,0.37 4.27,0 3.82,0L0,0L0,1.64Z "/>
                </g>
            </g>
        </g>
    </g>
</svg>