<svg xmlns="http://www.w3.org/2000/svg" xmlns:xlink="http://www.w3.org/1999/xlink"
     viewBox="0 0 24 24" fill="none">
    <defs>
        <rect id="path_0" x="0" y="0" width="24" height="24"/>
    </defs>
    <g opacity="1" transform="translate(0 0)  rotate(0 12 12)">
        <mask id="bg-mask-0" fill="white">
            <use xlink:href="#path_0"></use>
        </mask>
        <g mask="url(#bg-mask-0)">
            <g opacity="1" transform="translate(2 2)  rotate(0 10 10)">
                <path id="_path-1" fill-rule="evenodd" style="fill:#000000" transform="translate(0 0)  rotate(0 10 10)"
                      opacity="0.9"
                      d="M4.22 2.5C3.03 2.52 2.47 2.64 1.99 2.87L1.79 2.97C1.22 3.27 0.77 3.72 0.47 4.29C0.16 4.86 0 5.43 0 6.99L0 15.51C0 16.89 0.13 17.49 0.37 18.01L0.47 18.21C0.77 18.78 1.22 19.23 1.79 19.53C2.36 19.84 2.93 20 4.49 20L13.01 20C14.39 20 14.99 19.87 15.51 19.63L15.71 19.53C16.28 19.23 16.73 18.78 17.03 18.21C17.34 17.64 17.5 17.07 17.5 15.51L17.5 6.99C17.5 5.61 17.37 5.01 17.13 4.49L17.03 4.29C16.73 3.72 16.28 3.27 15.71 2.97C15.14 2.66 14.57 2.5 13.01 2.5L4.22 2.5Z M2.66 18.29C2.99 18.43 3.38 18.49 4.26 18.5L4.49 18.5L13.01 18.5L13.45 18.5C14.31 18.48 14.65 18.4 15 18.21C15.31 18.04 15.54 17.81 15.71 17.5L15.79 17.34C15.93 17.01 15.99 16.62 16 15.74L16 15.51L16 6.99L16 6.55C15.98 5.69 15.9 5.35 15.71 5C15.54 4.69 15.31 4.46 15 4.29L14.84 4.21C14.51 4.07 14.12 4.01 13.24 4L4.49 4C3.29 4 2.9 4.08 2.5 4.29C2.19 4.46 1.96 4.69 1.79 5L1.71 5.16C1.57 5.49 1.51 5.88 1.5 6.76L1.5 15.51C1.5 16.71 1.58 17.1 1.79 17.5C1.96 17.81 2.19 18.04 2.5 18.21L2.66 18.29Z M3.84517 1.5L13.9152 1.5C15.1152 1.52 15.7652 1.66 16.4352 2.02C17.0952 2.37 17.6252 2.9 17.9852 3.56C18.3652 4.28 18.4952 4.98 18.4952 6.35L18.4952 16.15C18.4952 16.32 18.4952 16.47 18.4952 16.61C18.8952 16.3 19.2252 15.91 19.4652 15.45C19.8152 14.8 19.9952 14.16 19.9952 12.37L19.9952 6.41C19.9952 4.18 19.7652 3.37 19.3352 2.56C18.8952 1.74 18.2552 1.1 17.4452 0.67C16.6252 0.23 15.8152 0 13.5952 0L7.62517 0C5.84517 0 5.19517 0.19 4.54517 0.53C4.08517 0.78 3.69517 1.11 3.38517 1.51C3.52517 1.5 3.68517 1.5 3.84517 1.5Z M4.71429 10.9754C4.41429 10.7154 3.96429 10.7254 3.68429 11.0054C3.39429 11.2954 3.39429 11.7754 3.68429 12.0654L6.13429 14.5154L6.17429 14.5554C6.86429 15.1954 7.94429 15.1854 8.60429 14.5154L13.8043 9.31536L13.8343 9.28536C14.1043 8.98536 14.0943 8.53536 13.8043 8.25536C13.5143 7.96536 13.0443 7.96536 12.7443 8.25536L7.90429 13.1054L7.87429 13.1354C7.57429 13.3954 7.12429 13.3854 6.84429 13.1054L4.74429 11.0054L4.71429 10.9754Z "/>
            </g>
        </g>
    </g>
</svg>