<svg xmlns="http://www.w3.org/2000/svg" xmlns:xlink="http://www.w3.org/1999/xlink"
     viewBox="0 0 24 24" fill="none">
    <defs>
        <path id="path_0"
              transform="translate(1.649999999999637 1.453824752762785) rotate(0 10.353167236952576 9.932208786329165)"
              d="M1.5 6.27C1.12 6.32 0.77 6.5 0.5 6.78C-0.18 7.47 -0.16 8.58 0.53 9.25L3.8 12.44C4.03 12.67 4.14 13 4.08 13.32L3.31 17.82C3.25 18.2 3.31 18.59 3.49 18.93C3.94 19.78 4.99 20.11 5.85 19.66L8.9 18.06Q8.90344 18.0579 8.90688 18.0559Q10.3199 17.2132 11.6783 16.294Q12.5658 15.6933 13.43 15.06C14.0046 14.6399 14.5871 14.1979 15.1762 13.7339L15.92 18.1003C15.93 18.2303 15.84 18.3403 15.71 18.3603C15.71 18.3603 15.6 18.3603 15.55 18.3403L13.1778 17.0866C12.7135 17.409 12.2429 17.7256 11.7651 18.0372L14.85 19.66C15.2 19.84 15.59 19.9 15.97 19.84C16.92 19.68 17.56 18.77 17.4 17.82L16.62 13.32C16.57 13 16.67 12.67 16.91 12.44L20.18 9.25C20.45 8.98 20.63 8.63 20.69 8.25C20.83 7.3 20.16 6.41 19.21 6.27L14.69 5.61C14.37 5.57 14.09 5.36 13.94 5.07L11.92 0.98C11.75 0.63 11.47 0.35 11.13 0.18C10.26 -0.25 9.21 0.11 8.78 0.98L6.76 5.07C6.62 5.36 6.34 5.57 6.01 5.61L1.5 6.27ZM16.8389 10.4083L16.24 10.9203C15.01 11.9703 13.76 12.9603 12.54 13.8503C11.1249 14.8867 9.66024 15.8536 8.14589 16.7608L5.15 18.3403L5.12141 18.3499C5.08626 18.3476 4.95141 18.336 4.86726 18.2856C4.84328 18.2702 4.82293 18.2519 4.81 18.2303C4.81 18.2303 4.78 18.1303 4.79 18.0703L5.56 13.5803L5.57 13.5003C5.58834 13.3686 5.59612 13.2369 5.5937 13.1062C5.58722 12.4541 5.32044 11.8233 4.84 11.3603L1.58 8.18033L1.55057 8.15091L1.57 7.83033C1.61 7.79033 1.71 7.75033 1.71 7.75033L6.31 7.09033C7.09 6.95033 7.76 6.44033 8.11 5.73033L10.13 1.64033L10.17 1.58033C10.17 1.58033 10.3418 1.48085 10.4447 1.52271C10.4499 1.52504 10.455 1.52758 10.46 1.53033L10.58 1.64033L12.63 5.80033C12.714 5.95508 12.8127 6.09908 12.924 6.23081C13.3128 6.69813 13.8635 7.0111 14.48 7.10033L19.05 7.77033C19.1041 7.79197 19.1494 7.83408 19.1764 7.88717C19.1991 7.93245 19.2084 7.9855 19.2 8.04033C19.2 8.04033 19.17 8.14033 19.13 8.18033L16.8389 10.4083Z"/>
    </defs>
    <g opacity="1" transform="translate(0 0)  rotate(0 12 12)">
        <mask id="mask-0" fill="white">
            <use xlink:href="#path_0"></use>
        </mask>
        <g mask="url(#mask-0)"></g>
        <g mask="url(#mask-0)">
            <g opacity="1" transform="translate(0 0)  rotate(0 12 12)">
                <path id="color/#000000" fill-rule="evenodd" style="fill:#000000"
                      transform="translate(0 0)  rotate(0 12 12)" opacity="0.9" d="M0,24L24,24L24,0L0,0L0,24Z "/>
            </g>
        </g>
    </g>
</svg>