<svg xmlns="http://www.w3.org/2000/svg"
     xmlns:xlink="http://www.w3.org/1999/xlink"
     viewBox="0 0 24 24"
     fill="none">
    <defs>
        <rect
            id="path_0"
            x="0"
            y="0"
            width="24"
            height="24"/>
    </defs>
    <g
        opacity="1"
        transform="translate(0 0)  rotate(0 12 12)">
        <mask
            id="bg-mask-0"
            fill="white">
            <use xlink:href="#path_0"></use>
        </mask>
        <g mask="url(#bg-mask-0)">
            <path
                id="路径 1"
                fill-rule="evenodd"
                fill="#0A59F7"
                transform="translate(2 1)  rotate(0 9.951988511424736 10.5)"
                opacity="1"
                d="M13.3,1L6.8,1C6.8,0.5 6.3,0 5.8,0C5.3,0 4.8,0.5 4.8,1L3.9,1C1.8,1 0,2.8 0,4.9L0,17C0,19.2 1.8,21 3.9,21L16,21C18.2,21 19.9,19.2 19.9,17.1L19.9,4.9C20,2.8 18.2,1 16.1,1L15.3,1C15.3,0.5 14.8,0 14.3,0C13.8,0 13.3,0.5 13.3,1Z "/>
            <g
                opacity="1"
                transform="translate(2 1)  rotate(0 9.95 7.899999999999999)">
                <path
                    id="路径 2"
                    fill-rule="evenodd"
                    fill="#FFFFFF"
                    transform="translate(2.8999999999999995 10.5)  rotate(0 2.849999999999999 2.6499999999999986)"
                    opacity="0.8"
                    d="M0.7,0C0.3,0 0,0.3 0,0.7L0,4.6C0,5 0.3,5.3 0.7,5.3L5,5.3C5.4,5.3 5.7,5 5.7,4.6L5.7,0.7C5.7,0.3 5.3,0 5,0L0.7,0Z "/>
                <path
                    id="路径 3"
                    fill-rule="evenodd"
                    fill="#FFFFFF"
                    transform="translate(0 6.5)  rotate(0 9.95 0.75)"
                    opacity="0.8"
                    d="M0,1.5L19.9,1.5L19.9,0L0,0L0,1.5Z "/>
                <path
                    id="路径 4"
                    fill-rule="evenodd"
                    fill="#FFFFFF"
                    transform="translate(13.3 0)  rotate(0 1 2)"
                    opacity="0.8"
                    d="M1.1,4C1.6,4 2,3.5 2,3L2,1C2,0.5 1.5,0 1,0C0.5,0 0,0.5 0,1L0,3C0,3.5 0.4,4 1,4L1.1,4Z "/>
                <path
                    id="路径 5"
                    fill-rule="evenodd"
                    fill="#FFFFFF"
                    transform="translate(4.799999999999999 0)  rotate(0 1 2)"
                    opacity="0.8"
                    d="M1.1,4C1.6,4 2,3.5 2,3L2,1C2,0.5 1.5,0 1,0C0.5,0 0,0.5 0,1L0,3C0,3.5 0.4,4 1,4L1.1,4Z "/>
            </g>
        </g>
    </g>
</svg>