<svg xmlns="http://www.w3.org/2000/svg" xmlns:xlink="http://www.w3.org/1999/xlink"
     viewBox="0 0 24 24" fill="none">
    <defs>
        <rect id="path_0" x="0" y="0" width="24" height="24"/>
    </defs>
    <g opacity="1" transform="translate(0 0)  rotate(0 12 12)">
        <mask id="bg-mask-0" fill="white">
            <use xlink:href="#path_0"></use>
        </mask>
        <g mask="url(#bg-mask-0)">
            <g opacity="1" transform="translate(2 1.75)  rotate(0 9.875 10.125)">
                <g opacity="1" transform="translate(0 0)  rotate(0 9.875 10.125)">
                    <path id="_path-1" fill-rule="evenodd" style="fill:#000000"
                          transform="translate(2.1210000000000004 5.75)  rotate(0 7.877999999999999 7.25)" opacity="0.4"
                          d="M2.61,10.97L1.51,0L0,0L1.11,11.12L1.12,11.21C1.35,13.08 2.94,14.5 4.84,14.5L10.91,14.5L11,14.5C12.89,14.46 14.46,13.01 14.64,11.12L15.56,1.9L15.76,0L14.25,0L14.07,1.75L13.15,10.97L13.14,11.04C13,12.16 12.05,13 10.91,13L4.84,13L4.78,13C3.65,12.97 2.72,12.1 2.61,10.97Z "/>
                    <path id="_path-1" fill-rule="evenodd" style="fill:#000000"
                          transform="translate(7.5 10)  rotate(0 0.75 3.75)" opacity="0.4"
                          d="M0,0.75L0,6.75C0,7.16 0.34,7.5 0.75,7.5C1.16,7.5 1.5,7.16 1.5,6.75L1.5,0.75C1.5,0.34 1.16,0 0.75,0C0.34,0 0,0.34 0,0.75Z "/>
                    <path id="_path-1" fill-rule="evenodd" style="fill:#000000"
                          transform="translate(11 10)  rotate(0 0.75 3.75)" opacity="0.4"
                          d="M0,0.75L0,6.75C0,7.16 0.34,7.5 0.75,7.5C1.16,7.5 1.5,7.16 1.5,6.75L1.5,0.75C1.5,0.34 1.16,0 0.75,0C0.34,0 0,0.34 0,0.75Z "/>
                    <path id="_path-1" fill-rule="evenodd" style="fill:#000000"
                          transform="translate(0 0)  rotate(0 9.875 2.375)" opacity="0.4"
                          d="M11.75,3.25L11.75,4L11.75,4.04C11.77,4.44 12.1,4.75 12.5,4.75L19,4.75L19.04,4.75C19.44,4.73 19.75,4.4 19.75,4C19.75,3.59 19.41,3.25 19,3.25L13.25,3.25L13.25,3.17C13.21,1.41 11.77,0 10,0C8.21,0 6.75,1.46 6.75,3.25L0.75,3.25L0.71,3.25C0.31,3.27 0,3.6 0,4C0,4.41 0.34,4.75 0.75,4.75L7.5,4.75L7.54,4.75C7.94,4.73 8.25,4.4 8.25,4L8.25,3.25L8.25,3.19C8.28,2.25 9.05,1.5 10,1.5C10.97,1.5 11.75,2.28 11.75,3.25Z "/>
                </g>
            </g>
        </g>
    </g>
</svg>