<svg xmlns="http://www.w3.org/2000/svg" viewBox="0 0 20 20"><path d="M17.71,5A5,5,0,0,0,15,4.5H6.49A5,5,0,0,0,3.79,5,3.11,3.11,0,0,0,2.47,6.29,5,5,0,0,0,2,9v8.52a5,5,0,0,0,.47,2.7,3.11,3.11,0,0,0,1.32,1.32,5,5,0,0,0,2.7.47H15a5,5,0,0,0,2.7-.47A3.11,3.11,0,0,0,19,20.21a5,5,0,0,0,.47-2.7V9A5,5,0,0,0,19,6.29,3.11,3.11,0,0,0,17.71,5Zm-1.88,6.32,0,0-5.2,5.2a1.75,1.75,0,0,1-2.43,0l0,0L5.68,14.07a.75.75,0,0,1,1-1.09l0,0,2.1,2.1a.76.76,0,0,0,1,0l0,0,4.84-4.85a.75.75,0,0,1,1.06,0A.74.74,0,0,1,15.83,11.29Zm5.51-6.73a4.53,4.53,0,0,0-1.89-1.89C18.63,2.23,17.82,2,15.6,2h-6a5.9,5.9,0,0,0-3.08.53,3.68,3.68,0,0,0-1.16,1H15.92A5,5,0,0,1,18.44,4,3.77,3.77,0,0,1,20,5.56a5.44,5.44,0,0,1,.51,2.79V18.61a3.52,3.52,0,0,0,1-1.16A5.77,5.77,0,0,0,22,14.37v-6C22,6.18,21.77,5.37,21.34,4.56Z" transform="translate(-2 -2)" style="fill:#ac49f5;fill-rule:evenodd"/></svg>