<svg xmlns="http://www.w3.org/2000/svg" xmlns:xlink="http://www.w3.org/1999/xlink"
     viewBox="0 0 24 24" fill="none">
    <defs>
        <rect id="path_0" x="0" y="0" width="24" height="24"/>
    </defs>
    <g opacity="1" transform="translate(0 0)  rotate(0 12 12)">
        <mask id="bg-mask-0" fill="white">
            <use xlink:href="#path_0"></use>
        </mask>
        <g mask="url(#bg-mask-0)">
            <g opacity="1" transform="translate(1 2)  rotate(0 11 9.75)">
                <path id="_path-1" fill-rule="evenodd" style="fill:#000000"
                      transform="translate(0 0)  rotate(0 11 9.75)" opacity="0.9"
                      d="M19 19.5C20.66 19.5 22 18.16 22 16.5C22 14.84 20.66 13.5 19 13.5C17.6 13.5 16.43 14.46 16.09 15.75L5.91 15.75C5.75 15.14 5.4 14.6 4.93 14.21L10.47 5.9C10.72 5.96 10.98 6 11.25 6C12.91 6 14.25 4.66 14.25 3C14.25 1.34 12.91 0 11.25 0C9.59 0 8.25 1.34 8.25 3C8.25 3.85 8.6 4.61 9.16 5.15L3.56 13.55C3.38 13.52 3.19 13.5 3 13.5C1.34 13.5 0 14.84 0 16.5C0 18.16 1.34 19.5 3 19.5C4.4 19.5 5.57 18.54 5.91 17.25L16.09 17.25C16.43 18.54 17.6 19.5 19 19.5Z M1.5 16.5C1.5 17.33 2.17 18 3 18C3.83 18 4.5 17.33 4.5 16.5C4.5 15.67 3.83 15 3 15C2.17 15 1.5 15.67 1.5 16.5Z M17.5 16.5C17.5 17.33 18.17 18 19 18C19.83 18 20.5 17.33 20.5 16.5C20.5 15.67 19.83 15 19 15C18.17 15 17.5 15.67 17.5 16.5Z M9.75 3C9.75 3.83 10.42 4.5 11.25 4.5C12.08 4.5 12.75 3.83 12.75 3C12.75 2.17 12.08 1.5 11.25 1.5C10.42 1.5 9.75 2.17 9.75 3Z "/>
            </g>
        </g>
    </g>
</svg>