<svg xmlns="http://www.w3.org/2000/svg" xmlns:xlink="http://www.w3.org/1999/xlink"
     viewBox="0 0 24 24" fill="none">
    <defs>
        <rect id="path_0" x="0" y="0" width="24" height="24"/>
    </defs>
    <g opacity="1" transform="translate(0 0)  rotate(0 12 12)">
        <mask id="bg-mask-0" fill="white">
            <use xlink:href="#path_0"></use>
        </mask>
        <g mask="url(#bg-mask-0)">
            <g opacity="1" transform="translate(1 3)  rotate(0 11 9)">
                <path id="_path-1" fill-rule="evenodd" style="fill:#F7B500" transform="translate(0 0)  rotate(0 11 9)"
                      opacity="1"
                      d="M16.5 2.5L16.56 2.5C17.48 2.53 18.23 3.17 18.44 4.02C18.3 4.01 18.15 4 18 4L11.41 4C11.15 4 10.89 3.89 10.71 3.71L7.44 0.44C7.16 0.16 6.78 0 6.38 0L4 0C1.79 0 0 1.79 0 4L0 14C0 16.21 1.79 18 4 18L18 18C20.21 18 22 16.21 22 14L22 8C22 6.52 21.2 5.23 20 4.54L20 4.5C20 2.57 18.43 1 16.5 1L9.46 1L10.96 2.5L16.5 2.5Z M12.375 7.22769C12.075 6.96769 11.625 6.97769 11.345 7.25769C11.075 7.52769 11.055 7.93769 11.275 8.23769L11.345 8.31769L13.315 10.2877L6.375 10.2877C5.965 10.2877 5.625 10.6277 5.625 11.0377C5.625 11.4177 5.905 11.7377 6.275 11.7777L6.375 11.7877L13.315 11.7877L11.345 13.7577L11.315 13.7877C11.055 14.0877 11.065 14.5377 11.345 14.8177C11.615 15.0877 12.025 15.1077 12.325 14.8877L12.405 14.8177L14.945 12.2777L14.995 12.2277C15.595 11.5877 15.615 10.5977 15.055 9.91769L14.945 9.79769L12.405 7.25769L12.375 7.22769Z "/>
            </g>
        </g>
    </g>
</svg>