<svg xmlns="http://www.w3.org/2000/svg" xmlns:xlink="http://www.w3.org/1999/xlink"
     viewBox="0 0 24 24" fill="none">
    <defs>
        <rect id="path_0" x="0" y="0" width="24" height="24"/>
    </defs>
    <g opacity="1" transform="translate(0 0)  rotate(0 12 12)">
        <mask id="bg-mask-0" fill="white">
            <use xlink:href="#path_0"></use>
        </mask>
        <g mask="url(#bg-mask-0)">
            <g opacity="1" transform="translate(1 2)  rotate(0 11 9.75)">
                <path id="_path-1" fill-rule="evenodd" style="fill:#F7B500"
                      transform="translate(0 0)  rotate(0 11 9.75)" opacity="1"
                      d="M19,19.5C20.66,19.5 22,18.16 22,16.5C22,14.84 20.66,13.5 19,13.5C17.69,13.5 16.58,14.33 16.17,15.5L5.83,15.5C5.68,15.07 5.43,14.69 5.12,14.38L10.73,5.96C10.9,5.98 11.07,6 11.25,6C12.91,6 14.25,4.66 14.25,3C14.25,1.34 12.91,0 11.25,0C9.59,0 8.25,1.34 8.25,3C8.25,3.75 8.53,4.44 8.99,4.97L3.29,13.51C3.19,13.5 3.1,13.5 3,13.5C1.34,13.5 0,14.84 0,16.5C0,18.16 1.34,19.5 3,19.5C4.31,19.5 5.42,18.67 5.83,17.5L16.17,17.5C16.58,18.67 17.69,19.5 19,19.5Z "/>
            </g>
        </g>
    </g>
</svg>