<svg xmlns="http://www.w3.org/2000/svg" viewBox="0 0 20 20"><g style="opacity:0.4000000059604645;isolation:isolate"><path d="M19,6.29A3.11,3.11,0,0,0,17.71,5,5,5,0,0,0,15,4.5H6.22A5.08,5.08,0,0,0,4,4.87l-.2.1A3.11,3.11,0,0,0,2.47,6.29,5,5,0,0,0,2,9v8.52A5.59,5.59,0,0,0,2.37,20l.1.2a3.11,3.11,0,0,0,1.32,1.32,5,5,0,0,0,2.7.47H15a5.59,5.59,0,0,0,2.5-.37l.2-.1A3.11,3.11,0,0,0,19,20.21a5,5,0,0,0,.47-2.7V9a5.59,5.59,0,0,0-.37-2.5ZM18,9v8.75a4.11,4.11,0,0,1-.21,1.6l-.08.16a1.73,1.73,0,0,1-.71.71,3.07,3.07,0,0,1-1.55.29H6.26a4.11,4.11,0,0,1-1.6-.21l-.16-.08a1.73,1.73,0,0,1-.71-.71,3.91,3.91,0,0,1-.29-2V8.76a4.11,4.11,0,0,1,.21-1.6L3.79,7a1.73,1.73,0,0,1,.71-.71,3.91,3.91,0,0,1,2-.29h8.75a4.11,4.11,0,0,1,1.6.21l.16.08a1.73,1.73,0,0,1,.71.71A3.07,3.07,0,0,1,18,8.55Zm3.34-4.43a4.53,4.53,0,0,0-1.89-1.89C18.63,2.23,17.82,2,15.6,2h-6a5.9,5.9,0,0,0-3.08.53,3.68,3.68,0,0,0-1.16,1H15.92A5,5,0,0,1,18.44,4,3.77,3.77,0,0,1,20,5.56a5.44,5.44,0,0,1,.51,2.79V18.61a3.52,3.52,0,0,0,1-1.16A5.77,5.77,0,0,0,22,14.37v-6C22,6.18,21.77,5.37,21.34,4.56Zm-6.6,5.7L9.9,15.11l0,0a.76.76,0,0,1-1,0L6.74,13l0,0a.75.75,0,0,0-1,1.09l2.45,2.45,0,0a1.75,1.75,0,0,0,2.43,0l5.2-5.2,0,0a.74.74,0,0,0,0-1A.75.75,0,0,0,14.74,10.26Z" transform="translate(-2 -2)" style="fill-rule:evenodd"/></g></svg>