<svg xmlns="http://www.w3.org/2000/svg" viewBox="0 0 20 20"><path d="M17.7,5A5,5,0,0,0,15,4.5H6.5A5,5,0,0,0,3.8,5,3.25,3.25,0,0,0,2.5,6.3,5,5,0,0,0,2,9v8.5a5,5,0,0,0,.5,2.7,3.25,3.25,0,0,0,1.3,1.3,5,5,0,0,0,2.7.5H15a5,5,0,0,0,2.7-.5A3.25,3.25,0,0,0,19,20.2a5,5,0,0,0,.5-2.7V9A5,5,0,0,0,19,6.3,2.74,2.74,0,0,0,17.7,5Zm-1.9,6.3h0l-5.2,5.2a1.63,1.63,0,0,1-2.4,0h0L5.7,14.1a.78.78,0,0,1,0-1.1.67.67,0,0,1,1,0l2.1,2.1a.67.67,0,0,0,1,0h0l4.8-4.9a.78.78,0,0,1,1.1,0A.71.71,0,0,1,15.8,11.3Zm5.5-6.7a4.36,4.36,0,0,0-1.9-1.9c-.8-.5-1.6-.7-3.8-.7h-6a6.64,6.64,0,0,0-3.1.5,5.8,5.8,0,0,0-1.2,1H15.9a5.51,5.51,0,0,1,2.5.5A3.86,3.86,0,0,1,20,5.5a5.18,5.18,0,0,1,.5,2.8V18.6a4,4,0,0,0,1-1.2,6.64,6.64,0,0,0,.5-3.1v-6C22,6.2,21.8,5.4,21.3,4.6Z" transform="translate(-2 -2)" style="fill:#ffb7c5;fill-rule:evenodd"/></svg>