<svg xmlns="http://www.w3.org/2000/svg" xmlns:xlink="http://www.w3.org/1999/xlink"
     viewBox="0 0 24 24" fill="none">
    <defs>
        <rect id="path_0" x="0" y="0" width="24" height="24"/>
    </defs>
    <g opacity="1" transform="translate(0 0)  rotate(0 12 12)">
        <mask id="bg-mask-0" fill="white">
            <use xlink:href="#path_0"></use>
        </mask>
        <g mask="url(#bg-mask-0)">
            <g opacity="1" transform="translate(1 3)  rotate(0 11 9)">
                <path id="_path-1" fill-rule="evenodd" style="fill:#E84026" transform="translate(0 0)  rotate(0 11 9)"
                      opacity="1"
                      d="M0,14C0,16.21 1.79,18 4,18L18,18C20.21,18 22,16.21 22,14L22,8C22,6.52 21.2,5.23 20,4.54L20,4.5C20,2.57 18.43,1 16.5,1L9.46,1L10.96,2.5L16.5,2.5L16.56,2.5C17.48,2.53 18.23,3.17 18.44,4.02C18.3,4.01 18.15,4 18,4L11.41,4C11.15,4 10.89,3.89 10.71,3.71L7.44,0.44C7.16,0.16 6.78,0 6.38,0L4,0C1.79,0 0,1.79 0,4L0,14Z "/>
            </g>
        </g>
    </g>
</svg>