<svg xmlns="http://www.w3.org/2000/svg" xmlns:xlink="http://www.w3.org/1999/xlink"
     viewBox="0 0 24 24" fill="none">
    <defs>
        <rect id="path_0" x="0" y="0" width="24" height="24"/>
    </defs>
    <g opacity="1" transform="translate(0 0)  rotate(0 12 12)">
        <mask id="bg-mask-0" fill="white">
            <use xlink:href="#path_0"></use>
        </mask>
        <g mask="url(#bg-mask-0)">
            <g opacity="1" transform="translate(1 1)  rotate(0 11 11)">
                <g opacity="1" transform="translate(0 0)  rotate(0 11 11)">
                    <path id="_path-1" fill-rule="evenodd" style="fill:#000000"
                          transform="translate(0 2.91491828)  rotate(0 6.970177444201582 9.542540859999999)"
                          opacity="0.9"
                          d="M1.5,2.53L1.4,2.72L1.21,3.07L1.01,3.48L0.87,3.8L0.77,4.04L0.69,4.25C0.62,4.44 0.55,4.64 0.49,4.84C0.17,5.87 0,6.97 0,8.09C0,14.16 4.92,19.09 11,19.09C11.8,19.09 12.58,19 13.35,18.83C13.75,18.75 14.01,18.35 13.92,17.94C13.83,17.54 13.44,17.28 13.03,17.37C12.37,17.51 11.69,17.59 11,17.59C5.75,17.59 1.5,13.33 1.5,8.09C1.5,6.96 1.7,5.86 2.07,4.84L3.75,4.84L3.84,4.83C4.07,4.78 4.25,4.58 4.25,4.34L4.25,0.5L4.24,0.41C4.2,0.18 4,0 3.75,0C3.62,0 3.5,0.05 3.41,0.13C3.35,0.19 3.29,0.25 3.23,0.3L3.1,0.43C2.83,0.71 2.57,1.01 2.33,1.32L2.2,1.48L1.94,1.85L1.76,2.12L1.5,2.53Z "/>
                    <path id="_path-1" fill-rule="evenodd" style="fill:#000000"
                          transform="translate(8.059645116593687 0)  rotate(0 6.970177441703156 9.54254085)"
                          opacity="0.9"
                          d="M0.59,0.25C0.19,0.34 -0.07,0.74 0.02,1.14C0.11,1.55 0.5,1.81 0.91,1.72C1.57,1.57 2.25,1.5 2.94,1.5C8.19,1.5 12.44,5.75 12.44,11C12.44,12.13 12.24,13.22 11.87,14.25L10.19,14.25L10.1,14.26C9.87,14.3 9.69,14.5 9.69,14.75L9.69,18.59L9.7,18.67C9.74,18.91 9.94,19.09 10.19,19.09C10.32,19.09 10.44,19.04 10.53,18.95C10.59,18.89 10.65,18.84 10.71,18.79L10.84,18.65C11.12,18.37 11.37,18.08 11.61,17.77L11.74,17.6L11.96,17.3L12.23,16.9L12.44,16.55L12.57,16.31L12.81,15.86L12.96,15.55L13.1,15.23L13.21,14.95L13.32,14.66C13.36,14.52 13.41,14.39 13.45,14.25C13.77,13.21 13.94,12.12 13.94,11C13.94,4.92 9.02,0 2.94,0C2.14,0 1.36,0.08 0.59,0.25Z "/>
                </g>
            </g>
        </g>
    </g>
</svg>