<svg xmlns="http://www.w3.org/2000/svg" xmlns:xlink="http://www.w3.org/1999/xlink"
     viewBox="0 0 24 24" fill="none">
    <defs>
        <rect id="path_0" x="0" y="0" width="24" height="24"/>
    </defs>
    <g opacity="1" transform="translate(0 0)  rotate(0 12 12)">
        <mask id="bg-mask-0" fill="white">
            <use xlink:href="#path_0"></use>
        </mask>
        <g mask="url(#bg-mask-0)">
            <g opacity="1"
               transform="translate(1.646946390741078 1.45382475083247)  rotate(0 10.353167237786563 9.932361642865633)">
                <g opacity="1" transform="translate(0 0)  rotate(0 10.353167237786563 9.932361642865633)">
                    <path id="_path-1" fill-rule="evenodd" style="fill:#000000"
                          transform="translate(11.723970609258922 12.04153794916753)  rotate(0 2.848172481204892 3.911416665362837)"
                          opacity="0.6"
                          d="M4.38,1C2.97,3.06 1.51,4.71 0,5.98L3.13,7.62C3.47,7.8 3.86,7.86 4.24,7.8C5.19,7.63 5.83,6.73 5.67,5.78L4.9,1.28C4.84,0.96 4.95,0.63 5.19,0.4L5.59,0C4.98,0.51 4.52,0.86 4.38,1Z "/>
                    <path id="_path-1" fill-rule="evenodd" style="fill:#000000"
                          transform="translate(0 0)  rotate(0 10.353167237786563 9.932361642865633)" opacity="0.6"
                          d="M11.13,0.18C10.26,-0.25 9.21,0.11 8.78,0.98L6.77,5.07C6.62,5.36 6.34,5.57 6.01,5.61L1.5,6.27C1.12,6.32 0.77,6.5 0.5,6.78C-0.18,7.47 -0.16,8.58 0.53,9.25L3.79,12.44C4.03,12.67 4.14,13 4.08,13.32L3.31,17.82C3.25,18.2 3.31,18.59 3.49,18.93C3.94,19.78 4.99,20.11 5.85,19.66L8.9,18.06L8.9,18.06C10.46,17.13 11.97,16.13 13.43,15.06C14.67,14.15 15.95,13.14 17.25,12.03L17.91,11.46L18.03,11.35L20.18,9.25C20.45,8.99 20.63,8.63 20.69,8.25C20.83,7.3 20.16,6.41 19.21,6.27L14.69,5.61C14.37,5.57 14.09,5.36 13.94,5.07L11.92,0.98C11.75,0.63 11.47,0.35 11.13,0.18Z "/>
                </g>
            </g>
        </g>
    </g>
</svg>