<svg xmlns="http://www.w3.org/2000/svg" xmlns:xlink="http://www.w3.org/1999/xlink"
     viewBox="0 0 24 24" fill="none">
    <defs>
        <rect id="path_0" x="0" y="0" width="24" height="24"/>
    </defs>
    <g opacity="1" transform="translate(0 0)  rotate(0 12 12)">
        <mask id="bg-mask-0" fill="white">
            <use xlink:href="#path_0"></use>
        </mask>
        <g mask="url(#bg-mask-0)">
            <g opacity="1"
               transform="translate(3.301651046359406 1.7439380539736584)  rotate(0 8.723688099338416 9.628030776977539)">
                <path id="_path-1" fill-rule="evenodd" style="fill:#000000"
                      transform="translate(0 0)  rotate(0 8.723688099338416 9.628030776977539)" opacity="1"
                      d="M11.45 16.261L11.59 16.251C12.49 16.181 13.2 15.421 13.2 14.511L13.2 11.061L15.7 11.061C16.12 11.061 16.53 10.911 16.84 10.631C17.57 10.001 17.65 8.89097 17.02 8.16096L10.79 0.950965C10.7 0.850965 10.6 0.750965 10.49 0.660965C9.34 -0.329035 7.6 -0.189035 6.62 0.960965L0.42 8.21097C0.15 8.53096 0 8.94096 0 9.36096L0.01 9.50097C0.08 10.401 0.84 11.101 1.76 11.101L4.2 11.091L4.2 14.511C4.2 15.471 4.98 16.261 5.95 16.261L11.45 16.261Z M5.19835 17.7561C4.78835 17.7561 4.44835 18.0961 4.44835 18.5061C4.44835 18.9161 4.78835 19.2561 5.19835 19.2561L12.1983 19.2561C12.6083 19.2561 12.9483 18.9161 12.9483 18.5061C12.9483 18.0961 12.6083 17.7561 12.1983 17.7561L5.19835 17.7561Z M1.75001 9.60099L4.95001 9.59099C5.36001 9.59099 5.70001 9.92099 5.70001 10.341L5.70001 14.511C5.70001 14.641 5.81001 14.761 5.95001 14.761L11.45 14.761C11.59 14.761 11.7 14.641 11.7 14.511L11.7 10.321C11.7 9.90099 12.03 9.57099 12.45 9.57099L15.7 9.56099C15.76 9.56099 15.82 9.54099 15.86 9.50099C15.97 9.41099 15.98 9.25099 15.89 9.14099L9.65001 1.93099C9.61001 1.89099 9.57001 1.84099 9.52001 1.80099L9.41001 1.72099C8.89001 1.36099 8.18001 1.45099 7.76001 1.94099L1.56001 9.19099C1.52001 9.23099 1.50001 9.29099 1.50001 9.35099C1.50001 9.49099 1.61001 9.60099 1.75001 9.60099Z "/>
            </g>
        </g>
    </g>
</svg>