<svg xmlns="http://www.w3.org/2000/svg" xmlns:xlink="http://www.w3.org/1999/xlink"
     viewBox="0 0 24 24" fill="none">
    <defs>
        <rect id="path_0" x="0" y="0" width="24" height="24"/>
    </defs>
    <g opacity="1" transform="translate(0 0)  rotate(0 12 12)">
        <mask id="bg-mask-0" fill="white">
            <use xlink:href="#path_0"></use>
        </mask>
        <g mask="url(#bg-mask-0)">
            <g opacity="1"
               transform="translate(4.002155494999999 4.002155494999999)  rotate(0 7.9978445025 7.9978445025)">
                <g opacity="1" transform="translate(0 0)  rotate(0 7.9978445025 7.9978445025)">
                    <path id="_path-1" fill-rule="evenodd" style="fill:#000000"
                          transform="translate(0 0)  rotate(0 7.9978445025 7.9978445025)" opacity="1"
                          d="M0.22,1.28L6.94,8L0.22,14.72C-0.07,15.01 -0.07,15.48 0.22,15.78C0.51,16.07 0.99,16.07 1.28,15.78L15.78,1.28C16.07,0.99 16.07,0.51 15.78,0.22C15.48,-0.07 15.01,-0.07 14.72,0.22L8,6.94L1.28,0.22C0.99,-0.07 0.51,-0.07 0.22,0.22C-0.07,0.51 -0.07,0.99 0.22,1.28Z "/>
                    <path id="_path-1" fill-rule="evenodd" style="fill:#000000"
                          transform="translate(8.705128105 8.704951305000002)  rotate(0 3.6452804499999996 3.6453688499999997)"
                          opacity="1"
                          d="M1.06,0L0,1.06L6.01,7.07C6.3,7.36 6.78,7.36 7.07,7.07C7.36,6.78 7.36,6.3 7.07,6.01L1.06,0Z "/>
                </g>
            </g>
        </g>
    </g>
</svg>