<svg xmlns="http://www.w3.org/2000/svg" xmlns:xlink="http://www.w3.org/1999/xlink"
     viewBox="0 0 24 24" fill="none">
    <defs>
        <rect id="path_0" x="0" y="0" width="24" height="24"/>
    </defs>
    <g opacity="1" transform="translate(0 0)  rotate(0 12 12)">
        <mask id="bg-mask-0" fill="white">
            <use xlink:href="#path_0"></use>
        </mask>
        <g mask="url(#bg-mask-0)">
            <g opacity="1" transform="translate(5.5 0.5)  rotate(0 6.75 11.5)">
                <path id="_path-1" fill-rule="evenodd" style="fill:#000000"
                      transform="translate(0 0)  rotate(0 6.75 11.5)" opacity="1"
                      d="M12.6 1.53C12.34 1.05 11.95 0.66 11.47 0.4C10.98 0.14 10.49 0 9.15 0L3.85 0C2.58 0 2.08 0.12 1.61 0.36L1.53 0.4C1.05 0.66 0.66 1.05 0.4 1.53C0.14 2.02 0 2.51 0 3.85L0 19.15C0 20.42 0.12 20.92 0.36 21.39L0.4 21.47C0.66 21.95 1.05 22.34 1.53 22.6C2 22.85 2.46 22.99 3.64 23L3.85 23L9.15 23C10.42 23 10.92 22.88 11.39 22.64L11.47 22.6C11.95 22.34 12.34 21.95 12.6 21.47C12.85 21 12.99 20.54 13 19.36L13 19.15L13 10.25C13.28 10.25 13.5 10.03 13.5 9.75L13.5 7.75C13.5 7.47 13.28 7.25 13 7.25L13 3.85C13 2.58 12.88 2.08 12.64 1.61L12.6 1.53Z M3.85016 21.5L9.15016 21.5C10.1502 21.5 10.4502 21.44 10.7602 21.28C10.9902 21.15 11.1502 20.99 11.2802 20.76C11.4302 20.48 11.4902 20.2 11.5002 19.41L11.5002 19.15L11.5002 3.85C11.5002 2.85 11.4402 2.55 11.2802 2.24C11.1502 2.01 10.9902 1.85 10.7602 1.72C10.4602 1.56 10.1702 1.5 9.24016 1.5L3.85016 1.5L3.59016 1.5C2.80016 1.51 2.52016 1.57 2.24016 1.72C2.01016 1.85 1.84016 2.01 1.72016 2.24C1.56016 2.54 1.50016 2.83 1.50016 3.76L1.50016 19.24L1.50016 19.41C1.51016 20.2 1.57016 20.48 1.72016 20.76C1.84016 20.99 2.01016 21.15 2.24016 21.28C2.52016 21.43 2.80016 21.49 3.59016 21.5L3.85016 21.5Z "/>
                <path id="_path-1" fill-rule="evenodd" style="fill:#000000"
                      transform="translate(2.5 2.5)  rotate(0 4 9)" opacity="0.6"
                      d="M0,0.64L0,17.36C0,17.58 0.02,17.66 0.07,17.74C0.11,17.83 0.17,17.89 0.26,17.93C0.34,17.98 0.42,18 0.64,18L7.36,18C7.58,18 7.66,17.98 7.74,17.93C7.83,17.89 7.89,17.83 7.93,17.74C7.98,17.66 8,17.58 8,17.36L8,0.64C8,0.42 7.98,0.34 7.93,0.26C7.89,0.17 7.83,0.11 7.74,0.07C7.66,0.02 7.58,0 7.36,0L0.64,0C0.42,0 0.34,0.02 0.26,0.07C0.17,0.11 0.11,0.17 0.07,0.26C0.02,0.34 0,0.42 0,0.64Z "/>
            </g>
        </g>
    </g>
</svg>