<svg xmlns="http://www.w3.org/2000/svg" xmlns:xlink="http://www.w3.org/1999/xlink"
     viewBox="0 0 24 24" fill="none">
    <defs>
        <rect id="path_0" x="0" y="0" width="24" height="24"/>
    </defs>
    <g opacity="1" transform="translate(0 0)  rotate(0 12 12)">
        <mask id="bg-mask-0" fill="white">
            <use xlink:href="#path_0"></use>
        </mask>
        <g mask="url(#bg-mask-0)">
            <path id="分组 1" fill-rule="evenodd" style="fill:#000000" transform="translate(0.25 4)  rotate(0 11.75 8)"
                  opacity="0.9"
                  d="M0 8C0 12.42 3.58 16 8 16C9.36 16 10.63 15.66 11.75 15.07C9.22 13.72 7.5 11.06 7.5 8C7.5 4.94 9.22 2.28 11.75 0.93C10.63 0.34 9.36 0 8 0C3.58 0 0 3.58 0 8Z M11.7496 0.93C12.5996 1.39 13.3596 1.99 13.9996 2.71C11.6896 3.36 9.9996 5.48 9.9996 8C9.9996 10.52 11.6896 12.64 13.9996 13.29C13.3596 14.01 12.5996 14.61 11.7496 15.07C12.8696 15.66 14.1496 16 15.4996 16C19.9196 16 23.4996 12.42 23.4996 8C23.4996 3.58 19.9196 0 15.4996 0C14.1496 0 12.8696 0.34 11.7496 0.93Z M13.9988 2.7096C15.2488 4.1196 15.9988 5.9696 15.9988 7.9996C15.9988 10.0296 15.2488 11.8796 13.9988 13.2896C14.4788 13.4296 14.9788 13.4996 15.4988 13.4996C18.5388 13.4996 20.9988 11.0396 20.9988 7.9996C20.9988 4.9596 18.5388 2.4996 15.4988 2.4996C14.9788 2.4996 14.4788 2.5696 13.9988 2.7096Z "/>
        </g>
    </g>
</svg>