<svg xmlns="http://www.w3.org/2000/svg" viewBox="0 0 10.56 10.28"><g style="opacity:0.4000000059604645;isolation:isolate"><path d="M6,1A5,5,0,0,0,2.13,9.17l0,0-.71.7a.5.5,0,1,0,.71.71l.7-.71,0,0a5,5,0,0,0,6.34,0l0,0,.7.71a.5.5,0,1,0,.71-.71l-.71-.7,0,0A5,5,0,0,0,6,1ZM6,6.38H6l0,0h0s0,0,0,0H5.8l0,0h0l0,0v0s0,0,0,0h0v0l0,0V6.09h0V3.45A.38.38,0,0,1,6,3.13a.37.37,0,0,1,.37.38V6.05A.41.41,0,0,1,6,6.38ZM8.48,8.5A.37.37,0,0,1,8,8.5L6.28,6.83l.07,0a.84.84,0,0,0,.47-.49L8.48,8l0,0A.36.36,0,0,1,8.48,8.5Zm-6.87-6a5.6,5.6,0,0,1,.91-.91.5.5,0,0,0,.09-.7A.51.51,0,0,0,1.9.83,6,6,0,0,0,.83,1.9a.51.51,0,0,0,.08.71A.5.5,0,0,0,1.61,2.52Zm9.56-.62A6,6,0,0,0,10.1.83a.5.5,0,1,0-.62.78,5.6,5.6,0,0,1,.91.91.5.5,0,0,0,.78-.62Z" transform="translate(-0.72 -0.72)" style="fill-rule:evenodd"/></g></svg>