<svg xmlns="http://www.w3.org/2000/svg"
     xmlns:xlink="http://www.w3.org/1999/xlink"
     viewBox="0 0 597 792">
    <defs>
        <style>
            .a,.d{fill:#fff;}.b{mask:url(#a);}.c,.e{fill:#f7b500;}.c,.d{fill-rule:evenodd;}.f{opacity:0.2;}.g{fill:#f2f2f2;opacity:0.8;}.h{fill:#f8d1c0;}.i{fill:#f4c1a9;}.j{fill:#ffebe2;}
        </style>
        <mask
            id="a"
            x="113.15"
            y="245.15"
            width="277.7"
            height="277.7"
            maskUnits="userSpaceOnUse">
            <g transform="translate(-98)">
                <rect
                    class="a"
                    x="251.82"
                    y="285.82"
                    width="196.36"
                    height="196.36"
                    transform="translate(-169.02 359.96) rotate(-45)"/>
            </g>
        </mask>
    </defs>
    <path
        class="a"
        d="M12,0H438a12,12,0,0,1,12,12V602a48,48,0,0,1-48,48H12A12,12,0,0,1,0,638V12A12,12,0,0,1,12,0Z"/>
    <g class="b">
        <path
            class="c"
            d="M286.36,447.64a90,90,0,1,0,0-127.28A90,90,0,0,0,286.36,447.64Z"
            transform="translate(-98)"/>
        <path
            class="d"
            d="M341.32,384l-26,26a6.14,6.14,0,1,0,8.68,8.68l26-26,26,26a6.14,6.14,0,1,0,8.68-8.68L324,349.29a6.14,6.14,0,1,0-8.68,8.68Z"
            transform="translate(-98)"/>
        <path
            class="d"
            d="M364.46,378.21,384.71,358a6.14,6.14,0,1,0-8.68-8.68l-20.24,20.25Z"
            transform="translate(-98)"/>
    </g>
    <circle
        class="e"
        cx="252"
        cy="222"
        r="54"/>
    <path
        class="a"
        d="M377,231.75a3,3,0,0,1,3,2.85V240a12,12,0,0,1-11.76,12H332a12,12,0,0,1-12-11.76v-5.49a3,3,0,0,1,6-.15V240a6,6,0,0,0,5.81,6H368a6,6,0,0,0,6-5.81v-5.44A3,3,0,0,1,377,231.75ZM350,192a3,3,0,0,1,3,3v35.51l10.64-10.63A3,3,0,0,1,368,224l-.1.11-13.63,13.63a6,6,0,0,1-8.35.13l-.13-.13-13.63-13.63a3,3,0,0,1,4.13-4.34l.11.1L347,230.5V195A3,3,0,0,1,350,192Z"
        transform="translate(-98)"/>
    <circle
        class="e"
        cx="252"
        cy="96"
        r="54"/>
    <path
        class="a"
        d="M377,105a3,3,0,0,1,3,2.86v5.39a12,12,0,0,1-11.76,12H332a12,12,0,0,1-12-11.76V108a3,3,0,0,1,6-.14v5.39a6,6,0,0,0,5.81,6H368a6,6,0,0,0,6-5.81V108A3,3,0,0,1,377,105ZM345.89,68.38a6,6,0,0,1,8.35.13h0l13.63,13.63.1.11a3,3,0,0,1-4.34,4.13h0L353,75.75v34.47a3,3,0,1,1-6,0V75.76L336.37,86.38l-.11.11a3,3,0,0,1-4.13-4.35h0l13.63-13.63Z"
        transform="translate(-98)"/>
    <circle
        class="f"
        cx="259"
        cy="367"
        r="35"/>
    <circle
        class="g"
        cx="259"
        cy="367"
        r="25"/>
    <path
        class="h"
        d="M685,720c-4-10.2-7.27-19.24-9.91-26.86-1.15-3.32-2.18-6.38-3.09-9.14-2.57-7.78-4-12.58-5-19-1.24-7.93-.94-12.73-1-23,0-1.32-.12-18.67-1-29-1.36-15.93-5.72-27.69-9-37-3.46-9.83-7.31-17.56-15-33,0,0-7.93-15.91-18-32-2.41-3.85-1.63-2.26-4-6s-5.61-9.23-8-10a35.8,35.8,0,0,0-4-1h0c-8.83-1.69-19.77-.43-22,0a4.61,4.61,0,0,1-4-1c-9.1-8.48-15.38-14.49-20-19,0,0-2.52-2.46-9-8-4.87-4.16-7-5.73-10-7a30,30,0,0,0-8-2c-11.66-1.05-21.59,8.59-23,10-2.08-2.2-5.14-5.36-9-9-4.54-4.29-6.81-6.44-9-8-5.67-4.06-16.17-8.11-25-5-10.35,3.65-17.48,16.81-16,32L371,359a16.57,16.57,0,0,0-29,16l81,160c-4.11,7.8-7.44,14.58-10,20-2.47,5.22-3.83,8-4,12-.24,5.43,1.76,9.38,4,14,0,0,5.9,12.17,11,24,3.61,8.39,6.13,15.25,12,24,2.53,3.77,4.14,5.57,16,19l15,17a64.79,64.79,0,0,0,20,18c5.95,3.5,19.14,13.47,51,42,2.14,3.83,4.29,7.81,6.42,11.89,2.55,4.87,5.08,9.89,7.58,15.11,6.7,14,12.3,27.39,17,40a229.24,229.24,0,0,0,126-51Z"
        transform="translate(-98)"/>
    <path
        class="i"
        d="M485,514a4.93,4.93,0,0,0,2-2c1.75-3.34-3.6-10.23-5-12-11-13.95-14.88-15.2-20-24a35.83,35.83,0,0,1-5-14,32.83,32.83,0,0,1,0-8c-.54,1-1.26,2.33-2,4a37.26,37.26,0,0,0-3,9,29.25,29.25,0,0,0,0,10c14.42,21.16,25.93,36,29,37A5.75,5.75,0,0,0,485,514Z"
        transform="translate(-98)"/>
    <path
        class="i"
        d="M511,467a16.32,16.32,0,0,1,5-4,10.14,10.14,0,0,0,0,4c.6,2.89,2.33,4.32,6,9,1,1.31,2,2.67,3,4,2,2.57,4.69,6.27,8,11a16.62,16.62,0,0,1,1,8q-6.5-8.94-13-18Q516,474,511,467Z"
        transform="translate(-98)"/>
    <path
        class="i"
        d="M578,490c6.71,8.88,11,14.6,12,16,.18.26.77,1.1,1,1s0-.81,0-1c0,0-.41-2.07,1-6,1-2.7,7-5.59,15-6a60.51,60.51,0,0,0-22,0,12.65,12.65,0,0,1-3-1,12.79,12.79,0,0,1-3-2A11.65,11.65,0,0,1,578,490Z"
        transform="translate(-98)"/>
    <path
        class="i"
        d="M423,535c6.54,11.53,11.92,21.39,16,29,14.89,27.78,7.77,16.84,12,24a49.46,49.46,0,0,1,7,18c.5,3.07,1.39,8.59-1,10-2.2,1.3-6.44-1.29-9-4-4.79-5.08-3.72-10.65-6-20-.88-3.61-1.54-4.83-7-17-3.45-7.7-8.46-19-15-34l2-4Z"
        transform="translate(-98)"/>
    <path
        class="j"
        d="M342,366c-.22-4.51,1.85-11.15,8-14a14.36,14.36,0,0,1,16,3l9,18c0,.52.42,8.25-6,13s-13.47,2.2-14,2a93.45,93.45,0,0,1-8-11C343.77,371.81,342.15,369.15,342,366Z"
        transform="translate(-98)"/>
</svg>