<svg xmlns="http://www.w3.org/2000/svg" viewBox="0 0 700 700"><rect x="360" y="360" width="340" height="340" rx="46.63" style="fill:#fff"/><path d="M406.63,360H653.37A46.63,46.63,0,0,1,700,406.63h0v23.31H360V406.63A46.63,46.63,0,0,1,406.63,360Z" transform="translate(0 0)" style="opacity:0.20000000298023224;isolation:isolate"/><rect y="360" width="340" height="340" rx="46.63" style="fill:#fff"/><path d="M46.63,360H293.37A46.63,46.63,0,0,1,340,406.63h0v23.31H0V406.63A46.63,46.63,0,0,1,46.63,360Z" transform="translate(0 0)" style="opacity:0.20000000298023224;isolation:isolate"/><rect x="360" width="340" height="340" rx="46.63" style="fill:#fff"/><path d="M406.63,0H653.37A46.63,46.63,0,0,1,700,46.63h0V69.94H360V46.63A46.63,46.63,0,0,1,406.63,0Z" transform="translate(0 0)" style="opacity:0.20000000298023224;isolation:isolate"/><rect width="340" height="340" rx="46.63" style="fill:#fff"/><rect width="340" height="340" rx="46.63" style="fill:#f7b500;opacity:0.30000001192092896;isolation:isolate"/><path d="M46.63,0H293.37A46.63,46.63,0,0,1,340,46.63h0V69.94H0V46.63A46.63,46.63,0,0,1,46.63,0Z" transform="translate(0 0)" style="fill:#f7b500"/><rect x="159" y="181.21" width="340" height="116.57" rx="23.31" style="fill:#f7b500;opacity:0.30000001192092896;isolation:isolate"/><path d="M248.37,215.58H471.31a5.83,5.83,0,0,1,5.83,5.83h0a5.83,5.83,0,0,1-5.83,5.83H248.37a5.83,5.83,0,0,1-5.83-5.83h0a5.83,5.83,0,0,1,5.83-5.83Z" transform="translate(0 0)"/><path d="M306.29,256.5H471.55a5.83,5.83,0,0,1,5.83,5.83h0a5.83,5.83,0,0,1-5.83,5.83H306.29a5.83,5.83,0,0,1-5.83-5.83h0A5.83,5.83,0,0,1,306.29,256.5Z" transform="translate(0 0)" style="opacity:0.6000000238418579;isolation:isolate"/><path d="M200.84,220a20,20,0,0,0-20,20h0a20,20,0,1,0,20-20Zm0,37.34a17.31,17.31,0,0,1-17.3-17.3v0h0a17.28,17.28,0,0,1,17.28-17.28h0a17.31,17.31,0,1,1,.83,34.61h-.83Z" transform="translate(0 0)" style="fill-rule:evenodd"/><circle cx="252.99" cy="262.09" r="10.93" style="opacity:0.4000000059604645;isolation:isolate"/><circle cx="282.13" cy="262.09" r="10.93" style="opacity:0.4000000059604645;isolation:isolate"/><circle cx="288.5" cy="245" r="35" style="opacity:0.20000000298023224;isolation:isolate"/><circle cx="288.5" cy="245" r="25" style="fill:#f2f2f2;opacity:0.800000011920929;isolation:isolate"/><path d="M616.5,598c-4-10.2-7.27-19.24-9.91-26.86-1.15-3.32-2.18-6.38-3.09-9.14-2.57-7.78-4-12.58-5-19-1.24-7.93-.94-12.73-1-23,0-1.32-.12-18.67-1-29-1.36-15.93-5.72-27.69-9-37-3.46-9.83-7.31-17.56-15-33,0,0-7.93-15.91-18-32-2.41-3.85-1.63-2.26-4-6s-5.61-9.23-8-10a36.54,36.54,0,0,0-4-1h0c-8.83-1.69-19.77-.43-22,0a4.63,4.63,0,0,1-4-1c-9.1-8.48-15.38-14.49-20-19,0,0-2.52-2.46-9-8-4.87-4.16-7-5.73-10-7a30.19,30.19,0,0,0-8-2c-11.66-1.05-21.59,8.59-23,10-2.08-2.2-5.14-5.36-9-9-4.54-4.29-6.81-6.44-9-8-5.67-4.06-16.17-8.11-25-5-10.35,3.65-17.48,16.81-16,32l-81-118a16.57,16.57,0,0,0-29,16l81,160c-4.11,7.8-7.44,14.58-10,20-2.47,5.22-3.83,8-4,12-.24,5.43,1.76,9.38,4,14,0,0,5.9,12.17,11,24,3.61,8.39,6.13,15.25,12,24,2.53,3.77,4.14,5.57,16,19l15,17a64.77,64.77,0,0,0,20,18c5.95,3.5,19.14,13.47,51,42,2.14,3.83,4.29,7.81,6.42,11.89,2.55,4.87,5.08,9.89,7.58,15.11,6.7,14,12.3,27.39,17,40a229.22,229.22,0,0,0,126-51Z" transform="translate(0 0)" style="fill:#f8d1c0"/><path d="M416.5,392a4.94,4.94,0,0,0,2-2c1.75-3.34-3.6-10.23-5-12-11-13.95-14.88-15.2-20-24a35.84,35.84,0,0,1-5-14,32.45,32.45,0,0,1,0-8c-.54,1-1.26,2.33-2,4a37.07,37.07,0,0,0-3,9,29.45,29.45,0,0,0,0,10c14.42,21.16,25.93,36,29,37A5.74,5.74,0,0,0,416.5,392Z" transform="translate(0 0)" style="fill:#f4c1a9"/><path d="M442.5,345a16.42,16.42,0,0,1,5-4,10,10,0,0,0,0,4c.6,2.89,2.33,4.32,6,9,1,1.31,2,2.67,3,4,1.95,2.57,4.69,6.27,8,11a16.65,16.65,0,0,1,1,8q-6.5-8.94-13-18Z" transform="translate(0 0)" style="fill:#f4c1a9"/><path d="M509.5,368c6.71,8.88,11,14.6,12,16,.18.26.77,1.1,1,1s0-.81,0-1c0,0-.41-2.07,1-6,1-2.7,7-5.59,15-6a60.7,60.7,0,0,0-22,0,12.6,12.6,0,0,1-3-1,12.87,12.87,0,0,1-3-2A11.8,11.8,0,0,1,509.5,368Z" transform="translate(0 0)" style="fill:#f4c1a9"/><path d="M354.5,413c6.54,11.53,11.92,21.39,16,29,14.89,27.78,7.77,16.84,12,24a49.56,49.56,0,0,1,7,18c.5,3.07,1.39,8.59-1,10-2.2,1.3-6.44-1.29-9-4-4.79-5.08-3.72-10.65-6-20-.88-3.61-1.54-4.83-7-17-3.45-7.7-8.46-19-15-34,.67-1.33,1.33-2.67,2-4C353.83,414.33,354.17,413.67,354.5,413Z" transform="translate(0 0)" style="fill:#f4c1a9"/><path d="M273.5,244c-.22-4.51,1.85-11.15,8-14a14.36,14.36,0,0,1,16,3l9,18c0,.52.42,8.25-6,13a15.37,15.37,0,0,1-14,2,93.84,93.84,0,0,1-8-11C275.27,249.81,273.65,247.15,273.5,244Z" transform="translate(0 0)" style="fill:#ffebe2"/></svg>