<svg xmlns="http://www.w3.org/2000/svg"
     xmlns:xlink="http://www.w3.org/1999/xlink"
     viewBox="0 0 700.05 700">
    <defs>
        <style>
            .a{fill:#fff;}.b{fill:#f7b500;opacity:0.5;}.c{opacity:0.2;}.d,.f{opacity:0.6;}.e{opacity:0.36;}.g{mask:url(#a);}.h{fill-rule:evenodd;}.i{opacity:0.24;}.j{mask:url(#b);}.k{fill:#f2f2f2;opacity:0.8;}.l{fill:#f8d1c0;}.m{fill:#f4c1a9;}.n{fill:#ffebe2;}
        </style>
        <mask
            id="a"
            x="76.03"
            y="222.51"
            width="79.71"
            height="79.71"
            maskUnits="userSpaceOnUse">
            <g transform="translate(-50 -50)">
                <rect
                    class="a"
                    x="126.03"
                    y="272.51"
                    width="79.71"
                    height="79.71"/>
            </g>
        </mask>
        <mask
            id="b"
            x="76.22"
            y="435.33"
            width="79.71"
            height="79.71"
            maskUnits="userSpaceOnUse">
            <g transform="translate(-50 -50)">
                <rect
                    class="a"
                    x="126.22"
                    y="485.33"
                    width="79.71"
                    height="79.71"/>
            </g>
        </mask>
    </defs>
    <rect
        class="a"
        width="80.33"
        height="122.84"
        rx="24"/>
    <rect
        class="b"
        x="0.05"
        y="0.14"
        width="80.33"
        height="122.84"
        rx="24"/>
    <ellipse
        class="c"
        cx="40.16"
        cy="37.12"
        rx="28.69"
        ry="26.51"/>
    <rect
        class="c"
        x="11.48"
        y="74.23"
        width="57.38"
        height="38"
        rx="12"/>
    <rect
        class="a"
        x="103.28"
        width="80.33"
        height="122.84"
        rx="24"/>
    <rect
        class="b"
        x="103.33"
        y="0.14"
        width="80.33"
        height="122.84"
        rx="24"/>
    <ellipse
        class="c"
        cx="143.44"
        cy="37.12"
        rx="28.69"
        ry="26.51"/>
    <rect
        class="c"
        x="114.75"
        y="74.23"
        width="57.38"
        height="38"
        rx="12"/>
    <rect
        class="a"
        x="206.56"
        width="80.33"
        height="122.84"
        rx="24"/>
    <rect
        class="b"
        x="206.61"
        y="0.14"
        width="80.33"
        height="122.84"
        rx="24"/>
    <ellipse
        class="c"
        cx="246.72"
        cy="37.12"
        rx="28.69"
        ry="26.51"/>
    <rect
        class="c"
        x="218.03"
        y="74.23"
        width="57.38"
        height="38"
        rx="12"/>
    <rect
        class="a"
        x="309.84"
        width="80.33"
        height="122.84"
        rx="24"/>
    <rect
        class="b"
        x="309.88"
        y="0.14"
        width="80.33"
        height="122.84"
        rx="24"/>
    <ellipse
        class="c"
        cx="350"
        cy="37.12"
        rx="28.69"
        ry="26.51"/>
    <rect
        class="c"
        x="321.31"
        y="74.23"
        width="57.38"
        height="38"
        rx="12"/>
    <rect
        class="a"
        x="413.11"
        width="80.33"
        height="122.84"
        rx="24"/>
    <rect
        class="b"
        x="413.16"
        y="0.14"
        width="80.33"
        height="122.84"
        rx="24"/>
    <ellipse
        class="c"
        cx="453.28"
        cy="37.12"
        rx="28.69"
        ry="26.51"/>
    <rect
        class="c"
        x="424.59"
        y="74.23"
        width="57.38"
        height="38"
        rx="12"/>
    <rect
        class="a"
        x="516.39"
        width="80.33"
        height="122.84"
        rx="24"/>
    <rect
        class="b"
        x="516.44"
        y="0.14"
        width="80.33"
        height="122.84"
        rx="24"/>
    <ellipse
        class="c"
        cx="556.56"
        cy="37.12"
        rx="28.69"
        ry="26.51"/>
    <rect
        class="c"
        x="527.87"
        y="74.23"
        width="57.38"
        height="38"
        rx="12"/>
    <rect
        class="a"
        x="619.67"
        width="80.33"
        height="122.84"
        rx="24"/>
    <rect
        class="b"
        x="619.72"
        y="0.14"
        width="80.33"
        height="122.84"
        rx="24"/>
    <ellipse
        class="c"
        cx="659.84"
        cy="37.12"
        rx="28.69"
        ry="26.51"/>
    <rect
        class="c"
        x="631.15"
        y="74.23"
        width="57.38"
        height="38"
        rx="12"/>
    <path
        class="a"
        d="M88,155H612a48,48,0,0,1,48,48V688a12,12,0,0,1-12,12H52a12,12,0,0,1-12-12V203a48,48,0,0,1,48-48Z"/>
    <rect
        class="a"
        x="39.59"
        y="155.1"
        width="620"
        height="212.57"
        rx="48"/>
    <rect
        class="d"
        x="191.93"
        y="217.77"
        width="427.8"
        height="21.26"
        rx="10.63"/>
    <rect
        class="e"
        x="297.54"
        y="292.39"
        width="322.62"
        height="21.26"
        rx="10.63"/>
    <g class="f">
        <g class="g">
            <path
                class="h"
                d="M129.35,312.36a36.54,36.54,0,1,0,36.53-36.53A36.51,36.51,0,0,0,129.35,312.36Zm5,0a31.56,31.56,0,1,0,31.55-31.55A31.55,31.55,0,0,0,134.33,312.36Zm12.67.93,11.46,11.46.13.13a5.8,5.8,0,0,0,8.07-.13L186.43,305l.1-.1a2.49,2.49,0,0,0-3.62-3.42l-18.57,18.6-.13.1a2.52,2.52,0,0,1-3.42-.1l-10.27-10.3-.1-.1a2.51,2.51,0,0,0-3.42.1,2.32,2.32,0,0,0-.73,1.6v.33l0,.36A2.56,2.56,0,0,0,147,313.29Z"
                transform="translate(-50 -50)"/>
        </g>
    </g>
    <circle
        class="i"
        cx="210.97"
        cy="302.58"
        r="19.93"/>
    <circle
        class="i"
        cx="264.11"
        cy="302.58"
        r="19.93"/>
    <rect
        class="a"
        x="39.78"
        y="367.93"
        width="620"
        height="212.57"
        rx="48"/>
    <rect
        class="d"
        x="192.12"
        y="430.6"
        width="427.8"
        height="21.26"
        rx="10.63"/>
    <rect
        class="e"
        x="297.74"
        y="505.22"
        width="322.62"
        height="21.26"
        rx="10.63"/>
    <g class="f">
        <g class="j">
            <path
                class="h"
                d="M129.54,525.19a36.54,36.54,0,1,0,36.54-36.53A36.52,36.52,0,0,0,129.54,525.19Zm5,0a31.55,31.55,0,1,0,31.55-31.55A31.54,31.54,0,0,0,134.53,525.19Zm12.67.93,11.46,11.46.13.13a5.8,5.8,0,0,0,8.07-.13l19.76-19.76.1-.1a2.49,2.49,0,0,0-3.62-3.42l-18.57,18.6-.13.1a2.52,2.52,0,0,1-3.42-.1l-10.26-10.3-.1-.1a2.51,2.51,0,0,0-3.42.1,2.28,2.28,0,0,0-.73,1.6v.33l0,.36A2.53,2.53,0,0,0,147.2,526.12Z"
                transform="translate(-50 -50)"/>
        </g>
    </g>
    <circle
        class="i"
        cx="211.17"
        cy="515.41"
        r="19.93"/>
    <circle
        class="i"
        cx="264.31"
        cy="515.41"
        r="19.93"/>
    <rect
        class="d"
        x="191.54"
        y="642.72"
        width="427.8"
        height="21.26"
        rx="10.63"/>
    <rect
        class="c"
        x="299"
        y="11"
        width="70"
        height="200"
        rx="35"
        transform="translate(173 395) rotate(-90)"/>
    <circle
        class="c"
        cx="219"
        cy="61"
        r="35"/>
    <circle
        class="k"
        cx="219"
        cy="61"
        r="25"/>
    <rect
        class="c"
        x="432"
        y="11"
        width="70"
        height="200"
        rx="35"
        transform="translate(528 -406) rotate(90)"/>
    <circle
        class="c"
        cx="482"
        cy="61"
        r="35"/>
    <circle
        class="k"
        cx="482"
        cy="61"
        r="25"/>
    <path
        class="l"
        d="M596,461c-4-10.2-7.27-19.24-9.91-26.86-1.15-3.32-2.18-6.38-3.09-9.14-2.57-7.78-4-12.58-5-19-1.24-7.93-.94-12.73-1-23,0-1.32-.12-18.67-1-29-1.36-15.93-5.72-27.69-9-37-3.46-9.83-7.31-17.56-15-33,0,0-7.93-15.91-18-32-2.41-3.85-1.63-2.26-4-6s-5.61-9.23-8-10a35.8,35.8,0,0,0-4-1h0c-8.83-1.69-19.77-.43-22,0a4.61,4.61,0,0,1-4-1c-9.1-8.49-15.38-14.49-20-19,0,0-2.52-2.46-9-8-4.87-4.16-7-5.73-10-7a30,30,0,0,0-8-2c-11.66-1.05-21.59,8.59-23,10-2.08-2.2-5.14-5.36-9-9-4.54-4.29-6.81-6.44-9-8-5.67-4.06-16.17-8.11-25-5-10.35,3.65-17.48,16.81-16,32L282,100a16.57,16.57,0,0,0-29,16l81,160c-4.11,7.8-7.44,14.58-10,20-2.47,5.22-3.83,8-4,12-.24,5.43,1.76,9.38,4,14,0,0,5.9,12.17,11,24,3.61,8.39,6.13,15.25,12,24,2.53,3.77,4.14,5.57,16,19l15,17a64.79,64.79,0,0,0,20,18c5.95,3.5,19.14,13.47,51,42,2.14,3.83,4.29,7.81,6.42,11.89,2.55,4.87,5.08,9.89,7.58,15.11,6.7,14,12.3,27.39,17,40a229.24,229.24,0,0,0,126-51Z"
        transform="translate(-50 -50)"/>
    <path
        class="m"
        d="M396,255a4.93,4.93,0,0,0,2-2c1.75-3.34-3.6-10.23-5-12-11-13.95-14.88-15.2-20-24a35.83,35.83,0,0,1-5-14,32.83,32.83,0,0,1,0-8c-.54,1-1.26,2.33-2,4a37.26,37.26,0,0,0-3,9,29.25,29.25,0,0,0,0,10c14.42,21.16,25.93,36,29,37A5.75,5.75,0,0,0,396,255Z"
        transform="translate(-50 -50)"/>
    <path
        class="m"
        d="M422,208a16.32,16.32,0,0,1,5-4,10.14,10.14,0,0,0,0,4c.6,2.89,2.33,4.32,6,9,1,1.31,2,2.67,3,4,1.95,2.57,4.69,6.27,8,11a16.62,16.62,0,0,1,1,8q-6.5-8.94-13-18Q427,215,422,208Z"
        transform="translate(-50 -50)"/>
    <path
        class="m"
        d="M489,231c6.71,8.88,11,14.6,12,16,.18.26.77,1.1,1,1s0-.81,0-1c0,0-.41-2.07,1-6,1-2.7,7-5.59,15-6a60.51,60.51,0,0,0-22,0,12.65,12.65,0,0,1-3-1,12.79,12.79,0,0,1-3-2A11.65,11.65,0,0,1,489,231Z"
        transform="translate(-50 -50)"/>
    <path
        class="m"
        d="M334,276c6.54,11.53,11.92,21.39,16,29,14.89,27.78,7.77,16.84,12,24a49.46,49.46,0,0,1,7,18c.5,3.07,1.39,8.59-1,10-2.2,1.3-6.44-1.29-9-4-4.79-5.08-3.72-10.65-6-20-.88-3.61-1.54-4.83-7-17-3.45-7.7-8.46-19-15-34,.67-1.33,1.33-2.67,2-4C333.33,277.33,333.67,276.67,334,276Z"
        transform="translate(-50 -50)"/>
    <path
        class="n"
        d="M253,107c-.22-4.51,1.85-11.15,8-14a14.36,14.36,0,0,1,16,3l9,18c0,.52.42,8.25-6,13s-13.47,2.2-14,2a93.45,93.45,0,0,1-8-11C254.77,112.81,253.15,110.15,253,107Z"
        transform="translate(-50 -50)"/>
</svg>