<svg xmlns="http://www.w3.org/2000/svg" viewBox="0 0 700.05 700"><rect width="80.33" height="122.84" rx="24" style="fill:#fff"/><rect x="0.05" y="0.14" width="80.33" height="122.84" rx="24" style="fill:#f7b500;opacity:0.5;isolation:isolate"/><ellipse cx="40.16" cy="37.12" rx="28.69" ry="26.51" style="opacity:0.20000000298023224;isolation:isolate"/><rect x="11.48" y="74.23" width="57.38" height="38" rx="12" style="opacity:0.20000000298023224;isolation:isolate"/><rect x="103.28" width="80.33" height="122.84" rx="24" style="fill:#fff"/><rect x="103.33" y="0.14" width="80.33" height="122.84" rx="24" style="fill:#f7b500;opacity:0.5;isolation:isolate"/><ellipse cx="143.44" cy="37.12" rx="28.69" ry="26.51" style="opacity:0.20000000298023224;isolation:isolate"/><rect x="114.75" y="74.23" width="57.38" height="38" rx="12" style="opacity:0.20000000298023224;isolation:isolate"/><rect x="206.56" width="80.33" height="122.84" rx="24" style="fill:#fff"/><rect x="206.61" y="0.14" width="80.33" height="122.84" rx="24" style="fill:#f7b500;opacity:0.5;isolation:isolate"/><ellipse cx="246.72" cy="37.12" rx="28.69" ry="26.51" style="opacity:0.20000000298023224;isolation:isolate"/><rect x="218.03" y="74.23" width="57.38" height="38" rx="12" style="opacity:0.20000000298023224;isolation:isolate"/><rect x="309.84" width="80.33" height="122.84" rx="24" style="fill:#fff"/><rect x="309.88" y="0.14" width="80.33" height="122.84" rx="24" style="fill:#f7b500;opacity:0.5;isolation:isolate"/><ellipse cx="350" cy="37.12" rx="28.69" ry="26.51" style="opacity:0.20000000298023224;isolation:isolate"/><rect x="321.31" y="74.23" width="57.38" height="38" rx="12" style="opacity:0.20000000298023224;isolation:isolate"/><rect x="413.11" width="80.33" height="122.84" rx="24" style="fill:#fff"/><rect x="413.16" y="0.14" width="80.33" height="122.84" rx="24" style="fill:#f7b500;opacity:0.5;isolation:isolate"/><ellipse cx="453.28" cy="37.12" rx="28.69" ry="26.51" style="opacity:0.20000000298023224;isolation:isolate"/><rect x="424.59" y="74.23" width="57.38" height="38" rx="12" style="opacity:0.20000000298023224;isolation:isolate"/><rect x="516.39" width="80.33" height="122.84" rx="24" style="fill:#fff"/><rect x="516.44" y="0.14" width="80.33" height="122.84" rx="24" style="fill:#f7b500;opacity:0.5;isolation:isolate"/><ellipse cx="556.56" cy="37.12" rx="28.69" ry="26.51" style="opacity:0.20000000298023224;isolation:isolate"/><rect x="527.87" y="74.23" width="57.38" height="38" rx="12" style="opacity:0.20000000298023224;isolation:isolate"/><rect x="619.67" width="80.33" height="122.84" rx="24" style="fill:#fff"/><rect x="619.72" y="0.14" width="80.33" height="122.84" rx="24" style="fill:#f7b500;opacity:0.5;isolation:isolate"/><ellipse cx="659.84" cy="37.12" rx="28.69" ry="26.51" style="opacity:0.20000000298023224;isolation:isolate"/><rect x="631.15" y="74.23" width="57.38" height="38" rx="12" style="opacity:0.20000000298023224;isolation:isolate"/><path d="M88,155H612a48,48,0,0,1,48,48V688a12,12,0,0,1-12,12H52a12,12,0,0,1-12-12V203A48,48,0,0,1,88,155Z" style="fill:#fff"/><rect x="39.59" y="155.1" width="620" height="212.57" rx="48" style="fill:#fff"/><path d="M202.56,217.77H609.1a10.63,10.63,0,0,1,10.63,10.63h0A10.63,10.63,0,0,1,609.1,239H202.56a10.63,10.63,0,0,1-10.63-10.63h0A10.63,10.63,0,0,1,202.56,217.77Z" style="opacity:0.6000000238418579;isolation:isolate"/><path d="M308.17,292.39H609.53A10.63,10.63,0,0,1,620.16,303h0a10.63,10.63,0,0,1-10.63,10.63H308.17A10.63,10.63,0,0,1,297.54,303h0A10.63,10.63,0,0,1,308.17,292.39Z" style="opacity:0.36000001430511475;isolation:isolate"/><g style="opacity:0.6"><path d="M115.9,225.83h0a36.52,36.52,0,0,0-36.53,36.49v0a36.54,36.54,0,1,0,36.55-36.53Zm0,68.1a31.56,31.56,0,0,1-31.55-31.57h0v0a31.56,31.56,0,0,1,31.57-31.53h0a31.56,31.56,0,1,1,0,63.12Zm17-42.45-18.57,18.6-.13.1a2.53,2.53,0,0,1-3.42-.1l-10.27-10.3-.1-.1a2.5,2.5,0,0,0-3.42.1,2.32,2.32,0,0,0-.73,1.6v.69a2.55,2.55,0,0,0,.73,1.22h0l11.46,11.46.13.13a5.81,5.81,0,0,0,8.07-.13L136.43,255l.1-.1a2.49,2.49,0,0,0-3.62-3.42Z" style="fill-rule:evenodd"/></g><circle cx="210.97" cy="302.58" r="19.93" style="opacity:0.23999999463558197;isolation:isolate"/><circle cx="264.11" cy="302.58" r="19.93" style="opacity:0.23999999463558197;isolation:isolate"/><rect x="39.78" y="367.93" width="620" height="212.57" rx="48" style="fill:#fff"/><path d="M202.75,430.6H609.29a10.63,10.63,0,0,1,10.63,10.63h0a10.63,10.63,0,0,1-10.63,10.63H202.75a10.63,10.63,0,0,1-10.63-10.63h0A10.63,10.63,0,0,1,202.75,430.6Z" style="opacity:0.6000000238418579;isolation:isolate"/><path d="M308.37,505.22H609.73a10.63,10.63,0,0,1,10.63,10.63h0a10.63,10.63,0,0,1-10.63,10.63H308.37a10.63,10.63,0,0,1-10.63-10.63h0A10.63,10.63,0,0,1,308.37,505.22Z" style="opacity:0.36000001430511475;isolation:isolate"/><g style="opacity:0.6"><path d="M116.09,438.66h0a36.52,36.52,0,0,0-36.54,36.5v0a36.54,36.54,0,1,0,36.55-36.53Zm0,68.08a31.56,31.56,0,0,1-31.55-31.55h0v0a31.56,31.56,0,1,1,31.56,31.58Zm17-42.44-18.57,18.6-.13.1a2.53,2.53,0,0,1-3.42-.1l-10.26-10.3-.1-.1a2.5,2.5,0,0,0-3.42.1,2.26,2.26,0,0,0-.73,1.6v.69a2.57,2.57,0,0,0,.72,1.23h0l11.46,11.46.13.13a5.81,5.81,0,0,0,8.07-.13l19.76-19.76.1-.1a2.49,2.49,0,0,0-3.62-3.42Z" style="fill-rule:evenodd"/></g><circle cx="211.17" cy="515.41" r="19.93" style="opacity:0.23999999463558197;isolation:isolate"/><circle cx="264.31" cy="515.41" r="19.93" style="opacity:0.23999999463558197;isolation:isolate"/><path d="M202.17,642.72H608.71a10.63,10.63,0,0,1,10.63,10.63h0A10.63,10.63,0,0,1,608.71,664H202.17a10.63,10.63,0,0,1-10.63-10.63h0A10.63,10.63,0,0,1,202.17,642.72Z" style="opacity:0.6000000238418579;isolation:isolate"/><path d="M184,61h0a35,35,0,0,1,35-35H349a35,35,0,0,1,35,35h0a35,35,0,0,1-35,35H219A35,35,0,0,1,184,61Z" style="opacity:0.20000000298023224;isolation:isolate"/><circle cx="219" cy="61" r="35" style="opacity:0.20000000298023224;isolation:isolate"/><circle cx="219" cy="61" r="25" style="fill:#f2f2f2;opacity:0.800000011920929;isolation:isolate"/><path d="M517,61h0a35,35,0,0,1-35,35H352a35,35,0,0,1-35-35h0a35,35,0,0,1,35-35H482A35,35,0,0,1,517,61Z" style="opacity:0.20000000298023224;isolation:isolate"/><circle cx="482" cy="61" r="35" style="opacity:0.20000000298023224;isolation:isolate"/><circle cx="482" cy="61" r="25" style="fill:#f2f2f2;opacity:0.800000011920929;isolation:isolate"/><path d="M546,411c-4-10.2-7.27-19.24-9.91-26.86-1.15-3.32-2.18-6.38-3.09-9.14-2.57-7.78-4-12.58-5-19-1.24-7.93-.94-12.73-1-23,0-1.32-.12-18.67-1-29-1.36-15.93-5.72-27.69-9-37-3.46-9.83-7.31-17.56-15-33,0,0-7.93-15.91-18-32-2.41-3.85-1.63-2.26-4-6s-5.61-9.23-8-10a36.54,36.54,0,0,0-4-1h0c-8.83-1.69-19.77-.43-22,0a4.63,4.63,0,0,1-4-1c-9.1-8.49-15.38-14.49-20-19,0,0-2.52-2.46-9-8-4.87-4.16-7-5.73-10-7a30.19,30.19,0,0,0-8-2c-11.66-1.05-21.59,8.59-23,10-2.08-2.2-5.14-5.36-9-9-4.54-4.29-6.81-6.44-9-8-5.67-4.06-16.17-8.11-25-5-10.35,3.65-17.48,16.81-16,32L232,50a16.57,16.57,0,0,0-29,16l81,160c-4.11,7.8-7.44,14.58-10,20-2.47,5.22-3.83,8-4,12-.24,5.43,1.76,9.38,4,14,0,0,5.9,12.17,11,24,3.61,8.39,6.13,15.25,12,24,2.53,3.77,4.14,5.57,16,19l15,17a64.77,64.77,0,0,0,20,18c5.95,3.5,19.14,13.47,51,42,2.14,3.83,4.29,7.81,6.42,11.89,2.55,4.87,5.08,9.89,7.58,15.11,6.7,14,12.3,27.39,17,40a229.22,229.22,0,0,0,126-51Z" style="fill:#f8d1c0"/><path d="M346,205a4.94,4.94,0,0,0,2-2c1.75-3.34-3.6-10.23-5-12-11-13.95-14.88-15.2-20-24a35.84,35.84,0,0,1-5-14,32.45,32.45,0,0,1,0-8c-.54,1-1.26,2.33-2,4a37.07,37.07,0,0,0-3,9,29.45,29.45,0,0,0,0,10c14.42,21.16,25.93,36,29,37A5.74,5.74,0,0,0,346,205Z" style="fill:#f4c1a9"/><path d="M372,158a16.42,16.42,0,0,1,5-4,10,10,0,0,0,0,4c.6,2.89,2.33,4.32,6,9,1,1.31,2,2.67,3,4,1.95,2.57,4.69,6.27,8,11a16.65,16.65,0,0,1,1,8q-6.5-8.94-13-18Z" style="fill:#f4c1a9"/><path d="M439,181c6.71,8.88,11,14.6,12,16,.18.26.77,1.1,1,1s0-.81,0-1c0,0-.41-2.07,1-6,1-2.7,7-5.59,15-6a60.7,60.7,0,0,0-22,0,12.6,12.6,0,0,1-3-1,12.87,12.87,0,0,1-3-2A11.8,11.8,0,0,1,439,181Z" style="fill:#f4c1a9"/><path d="M284,226c6.54,11.53,11.92,21.39,16,29,14.89,27.78,7.77,16.84,12,24a49.56,49.56,0,0,1,7,18c.5,3.07,1.39,8.59-1,10-2.2,1.3-6.44-1.29-9-4-4.79-5.08-3.72-10.65-6-20-.88-3.61-1.54-4.83-7-17-3.45-7.7-8.46-19-15-34,.67-1.33,1.33-2.67,2-4C283.33,227.33,283.67,226.67,284,226Z" style="fill:#f4c1a9"/><path d="M203,57c-.22-4.51,1.85-11.15,8-14a14.36,14.36,0,0,1,16,3l9,18c0,.52.42,8.25-6,13a15.38,15.38,0,0,1-14,2,93.84,93.84,0,0,1-8-11C204.77,62.81,203.15,60.15,203,57Z" style="fill:#ffebe2"/></svg>