<svg xmlns="http://www.w3.org/2000/svg"
     xmlns:xlink="http://www.w3.org/1999/xlink"
     viewBox="0 0 24 24"
     fill="none">
    <defs>
        <rect
            id="path_0"
            x="0"
            y="0"
            width="24"
            height="24"/>
    </defs>
    <g
        opacity="1"
        transform="translate(0 0)  rotate(0 12 12)">
        <mask
            id="bg-mask-0"
            fill="white">
            <use xlink:href="#path_0"></use>
        </mask>
        <g mask="url(#bg-mask-0)">
            <path
                id="路径 1"
                fill-rule="evenodd"
                fill="#f78fa7"
                transform="translate(13 13)  rotate(0 4 4)"
                opacity="1"
                d="M8,3C8,1.4 6.6,0 5,0L4.1,0L3,0L1,0C0.5,0 0,0.5 0,1L0,3L0,4.1L0,5C0,6.7 1.4,8 3,8L3.9,8L5,8L7,8C7.5,8 8,7.5 8,7L8,5L8,3.9L8,3Z "/>
            <path
                id="路径 2"
                fill-rule="evenodd"
                fill="#f78fa7"
                transform="translate(3 13)  rotate(0 4 4)"
                opacity="1"
                d="M0,3L0,3.9L0,5L0,7C0,7.5 0.5,8 1,8L3,8L4.1,8L5,8C6.7,8 8,6.6 8,5L8,4.1L8,3L8,1C8,0.5 7.5,0 7,0L5,0L3.9,0L3,0C1.3,0 0,1.4 0,3Z "/>
            <path
                id="路径 3"
                fill-rule="evenodd"
                fill="#f78fa7"
                transform="translate(13 3)  rotate(0 4 4)"
                opacity="1"
                d="M3,0C1.3,0 0,1.4 0,3L0,3.9L0,5L0,7C0,7.5 0.5,8 1,8L3,8L4.1,8L5,8C6.7,8 8,6.6 8,5L8,4.1L8,3L8,1C8,0.5 7.5,0 7,0L5,0L3.9,0L3,0Z "/>
            <path
                id="路径 4"
                fill-rule="evenodd"
                fill="#f78fa7"
                transform="translate(3 3)  rotate(0 4 4)"
                opacity="1"
                d="M1,0C0.5,0 0,0.5 0,1L0,3L0,4.1L0,5C0,6.7 1.4,8 3,8L3.9,8L5,8L7,8C7.5,8 8,7.5 8,7L8,5L8,3.9L8,3C8,1.4 6.6,0 5,0L4.1,0L3,0L1,0Z "/>
            <path
                id="路径 4"
                fill-rule="evenodd"
                fill="#FFFFFF"
                transform="translate(3 3)  rotate(0 4 4)"
                opacity="0.8"
                d="M1,0C0.5,0 0,0.5 0,1L0,3L0,4.1L0,5C0,6.7 1.4,8 3,8L3.9,8L5,8L7,8C7.5,8 8,7.5 8,7L8,5L8,3.9L8,3C8,1.4 6.6,0 5,0L4.1,0L3,0L1,0Z "/>
        </g>
    </g>
</svg>