<svg xmlns="http://www.w3.org/2000/svg" viewBox="0 0 22 18"><g style="opacity:0.8500000238418579;isolation:isolate"><path d="M21,7.54v0A3.5,3.5,0,0,0,17.5,4h-7L12,5.5h5.6A2,2,0,0,1,19.44,7L19,7H12.41a1,1,0,0,1-.7-.29L8.44,3.44A1.5,1.5,0,0,0,7.38,3H5A4,4,0,0,0,1,7V17a4,4,0,0,0,4,4H19a4,4,0,0,0,4-4V11A4,4,0,0,0,21,7.54Zm.5,9.53A2.5,2.5,0,0,1,19,19.5H4.93A2.5,2.5,0,0,1,2.5,17V6.93A2.5,2.5,0,0,1,5,4.5H7.38l3.33,3.33a2.49,2.49,0,0,0,1.7.67h6.66A2.5,2.5,0,0,1,21.5,11Zm-8.12-6.84a.77.77,0,0,0-1,0,.75.75,0,0,0,0,1.06l2,2H7.38a.75.75,0,1,0,0,1.5h6.94l-2,2,0,0a.76.76,0,0,0,0,1,.77.77,0,0,0,1.07,0L16,15.23a1.75,1.75,0,0,0,0-2.43Z" transform="translate(-1 -3)" style="fill:#fff;fill-rule:evenodd"/></g></svg>