<svg xmlns="http://www.w3.org/2000/svg" xmlns:xlink="http://www.w3.org/1999/xlink"
     viewBox="0 0 24 24" fill="none">
    <defs>
        <rect id="path_0" x="0" y="0" width="24" height="24"/>
    </defs>
    <g opacity="1" transform="translate(0 0)  rotate(0 12 12)">
        <mask id="bg-mask-0" fill="white">
            <use xlink:href="#path_0"></use>
        </mask>
        <g mask="url(#bg-mask-0)">
            <g opacity="1" transform="translate(1 3)  rotate(0 11 9)">
                <path id="_path-1" fill-rule="evenodd" style="fill:#FFFFFF" transform="translate(0 0)  rotate(0 11 9)"
                      opacity="0.85"
                      d="M18 18C20.21 18 22 16.21 22 14L22 8C22 6.52 21.2 5.23 20 4.54L20 4.5C20 2.57 18.43 1 16.5 1L9.46 1L10.96 2.5L16.5 2.5L16.56 2.5C17.48 2.53 18.23 3.17 18.44 4.02C18.3 4.01 18.15 4 18 4L11.41 4C11.15 4 10.89 3.89 10.71 3.71L7.44 0.44C7.16 0.16 6.78 0 6.38 0L4 0C1.79 0 0 1.79 0 4L0 14C0 16.21 1.79 18 4 18L18 18Z M4 1.5C2.64 1.5 1.54 2.58 1.5 3.93L1.5 14C1.5 15.36 2.58 16.46 3.93 16.5L4 16.5L18 16.5C19.36 16.5 20.46 15.42 20.5 14.07L20.5 14L20.5 8C20.5 6.64 19.42 5.54 18.07 5.5L11.41 5.5C10.78 5.5 10.17 5.26 9.71 4.83L9.65 4.77L6.38 1.5L4 1.5Z M11.345 8.31769L13.315 10.2877L6.375 10.2877C5.965 10.2877 5.625 10.6277 5.625 11.0377C5.625 11.4577 5.965 11.7877 6.375 11.7877L13.315 11.7877L11.345 13.7577L11.315 13.7877C11.055 14.0877 11.065 14.5377 11.345 14.8177C11.635 15.1077 12.115 15.1077 12.405 14.8177L14.945 12.2777L14.995 12.2277C15.635 11.5477 15.615 10.4677 14.945 9.79769L12.405 7.25769L12.375 7.22769C12.075 6.96769 11.625 6.97769 11.345 7.25769C11.055 7.54769 11.055 8.02769 11.345 8.31769Z "/>
            </g>
        </g>
    </g>
</svg>