<svg xmlns="http://www.w3.org/2000/svg" viewBox="0 0 22 18"><path d="M21,7.54v0A3.5,3.5,0,0,0,17.5,4h-7L12,5.5h5.6A2,2,0,0,1,19.44,7L19,7H12.41a1,1,0,0,1-.7-.29L8.44,3.44A1.5,1.5,0,0,0,7.38,3H5A4,4,0,0,0,1,7V17a4,4,0,0,0,4,4H19a4,4,0,0,0,4-4V11A4,4,0,0,0,21,7.54Zm-5,7.69-2.58,2.59-.08.07a.75.75,0,0,1-1-1.1l0,0,2-2h-7A.74.74,0,0,1,6.63,14a.76.76,0,0,1,.75-.75h6.94l-2-2-.06-.08a.75.75,0,0,1,.06-1,.77.77,0,0,1,1,0L16,12.8l.1.12A1.75,1.75,0,0,1,16,15.23Z" transform="translate(-1 -3)" style="fill:#e08a2d;fill-rule:evenodd"/></svg>