<svg xmlns="http://www.w3.org/2000/svg"
     xmlns:xlink="http://www.w3.org/1999/xlink"
     viewBox="0 0 24 24"
     fill="none">
    <defs>
        <rect
            id="path_0"
            x="0"
            y="0"
            width="24"
            height="24"/>
    </defs>
    <g
        opacity="1"
        transform="translate(0 0)  rotate(0 12 12)">
        <mask
            id="bg-mask-0"
            fill="white">
            <use xlink:href="#path_0"></use>
        </mask>
        <g mask="url(#bg-mask-0)">
            <g
                opacity="1"
                transform="translate(1 1)  rotate(0 11 11)">
                <path
                    id="_path-1"
                    fill-rule="evenodd"
                    style="fill:#ffffff"
                    transform="translate(0 0)  rotate(0 11 11)"
                    opacity="1"
                    d="M20.5 11C20.5 5.75 16.25 1.5 11 1.5C10.32 1.5 9.66 1.57 9.01 1.71C4.66 2.64 1.5 6.5 1.5 11C1.5 16.25 5.75 20.5 11 20.5C11.94 20.5 12.87 20.36 13.75 20.09C15.06 19.7 16.26 19.03 17.28 18.12C17.59 17.85 18.07 17.88 18.34 18.19C18.62 18.5 18.59 18.98 18.28 19.25C17.09 20.29 15.7 21.07 14.19 21.53C13.16 21.84 12.09 22 11 22C4.92 22 0 17.08 0 11C0 5.79 3.66 1.32 8.69 0.24Q9.83 0 11 0C17.08 0 22 4.92 22 11C22 11.4533 21.9725 11.902 21.9176 12.343C21.8161 13.1823 21.6201 13.9926 21.3381 14.76C21.3081 14.84 21.2481 14.91 21.1781 14.96C20.9881 15.08 20.7381 15.02 20.6281 14.83L18.7281 11.76C18.6781 11.68 18.6481 11.59 18.6481 11.5C18.6481 11.22 18.8681 11 19.1481 11L20.5 11Z "/>
            </g>
        </g>
    </g>
</svg>