<svg xmlns="http://www.w3.org/2000/svg" xmlns:xlink="http://www.w3.org/1999/xlink"
     viewBox="0 0 24 24" fill="none">
    <defs>
        <rect id="path_0" x="0" y="0" width="24" height="24"/>
    </defs>
    <g opacity="1" transform="translate(0 0)  rotate(0 12 12)">
        <mask id="bg-mask-0" fill="white">
            <use xlink:href="#path_0"></use>
        </mask>
        <g mask="url(#bg-mask-0)">
            <g opacity="1" transform="translate(2 2)  rotate(0 10 10)">
                <g opacity="1" transform="translate(0 0)  rotate(0 10 10)">
                    <path id="_path-1" fill-rule="evenodd" style="fill:#FFFFFF"
                          transform="translate(0 0)  rotate(0 5.5 10)" opacity="0.85"
                          d="M11,19L11,1C11,0.45 10.55,0 10,0C9.45,0 9,0.45 9,1L9,9L1,9C0.45,9 0,9.45 0,10C0,10.55 0.45,11 1,11L9,11L9,19C9,19.55 9.45,20 10,20C10.55,20 11,19.55 11,19Z "/>
                    <path id="_path-1" fill-rule="evenodd" style="fill:#FFFFFF"
                          transform="translate(11.999 9)  rotate(0 4.0005 1)" opacity="0.85"
                          d="M0,0L0,2L7,2C7.55,2 8,1.55 8,1C8,0.45 7.55,0 7,0L0,0Z "/>
                </g>
            </g>
        </g>
    </g>
</svg>