<svg xmlns="http://www.w3.org/2000/svg" xmlns:xlink="http://www.w3.org/1999/xlink"
     viewBox="0 0 24 24" fill="none">
    <defs>
        <rect id="path_0" x="0" y="0" width="24" height="24"/>
    </defs>
    <g opacity="1" transform="translate(0 0)  rotate(0 12 12)">
        <mask id="bg-mask-0" fill="white">
            <use xlink:href="#path_0"></use>
        </mask>
        <g mask="url(#bg-mask-0)">
            <g opacity="1" transform="translate(0.75 3.75)  rotate(0 11.25 8.25)">
                <path id="_矩形" fill-rule="evenodd" style="fill:#FFFFFF"
                      transform="translate(2.5 2.5)  rotate(0 8.75 5.75)" opacity="0.600000024"
                      d="M17.3,0.77C17.17,0.52 16.98,0.33 16.73,0.2C16.49,0.07 16.25,0 15.58,0L1.92,0C1.25,0 1.01,0.07 0.77,0.2C0.52,0.33 0.33,0.52 0.2,0.77C0.07,1.01 0,1.25 0,1.92L0,9.58C0,10.25 0.07,10.49 0.2,10.73C0.33,10.98 0.52,11.17 0.77,11.3C1.01,11.43 1.25,11.5 1.92,11.5L15.58,11.5C16.25,11.5 16.49,11.43 16.73,11.3C16.98,11.17 17.17,10.98 17.3,10.73C17.43,10.49 17.5,10.25 17.5,9.58L17.5,1.92C17.5,1.25 17.43,1.01 17.3,0.77Z "/>
                <path id="_矩形" fill-rule="evenodd" style="fill:#FFFFFF"
                      transform="translate(0 0)  rotate(0 11.25 8.25)" opacity="1"
                      d="M1.99 0.37L1.79 0.47C1.22 0.77 0.77 1.22 0.47 1.79C0.16 2.36 0 2.93 0 4.49L0 12.01C0 13.39 0.13 13.99 0.37 14.51L0.47 14.71C0.77 15.28 1.22 15.73 1.79 16.03C2.36 16.34 2.93 16.5 4.49 16.5L18.01 16.5C19.39 16.5 19.99 16.37 20.51 16.13L20.71 16.03C21.28 15.73 21.73 15.28 22.03 14.71C22.34 14.14 22.5 13.57 22.5 12.01L22.5 4.49C22.5 3.11 22.37 2.51 22.13 1.99L22.03 1.79C21.73 1.22 21.28 0.77 20.71 0.47C20.14 0.16 19.57 0 18.01 0L4.49 0C3.11 0 2.51 0.13 1.99 0.37Z M4.49 15L18.01 15L18.45 15C19.31 14.98 19.65 14.9 20 14.71C20.31 14.54 20.54 14.31 20.71 14L20.79 13.84C20.93 13.51 20.99 13.12 21 12.24L21 12.01L21 4.49L21 4.05C20.98 3.19 20.9 2.85 20.71 2.5C20.54 2.19 20.31 1.96 20 1.79L19.84 1.71C19.51 1.57 19.12 1.51 18.24 1.5L4.49 1.5C3.29 1.5 2.9 1.58 2.5 1.79C2.19 1.96 1.96 2.19 1.79 2.5L1.71 2.66C1.57 2.99 1.51 3.38 1.5 4.26L1.5 12.01C1.5 13.21 1.58 13.6 1.79 14C1.96 14.31 2.19 14.54 2.5 14.71L2.66 14.79C2.99 14.93 3.38 14.99 4.26 15L4.49 15Z "/>
            </g>
        </g>
    </g>
</svg>