<svg xmlns="http://www.w3.org/2000/svg" xmlns:xlink="http://www.w3.org/1999/xlink"
     viewBox="0 0 24 24" fill="none">
    <defs>
        <rect id="path_0" x="0" y="0" width="24" height="24"/>
    </defs>
    <g opacity="1" transform="translate(0 0)  rotate(0 12 12)">
        <mask id="bg-mask-0" fill="white">
            <use xlink:href="#path_0"></use>
        </mask>
        <g mask="url(#bg-mask-0)">
            <g opacity="1" transform="translate(0.5 2.75)  rotate(0 11.5 9.625000001183723)">
                <g opacity="1" transform="translate(0 0)  rotate(0 11.5 9.625000001183723)">
                    <path id="_path-1" fill-rule="evenodd" style="fill:#FFFFFF"
                          transform="translate(6.749999998825001 8.5)  rotate(0 4.749999989707552 5.375000001183723)"
                          opacity="0.85"
                          d="M0.22,6.94L3.51,10.24L3.56,10.28C4.2,10.88 5.19,10.91 5.87,10.35L5.99,10.24L9.28,6.94L9.31,6.91C9.57,6.62 9.56,6.17 9.28,5.88C9.01,5.62 8.6,5.59 8.3,5.81L8.22,5.88L5.5,8.6L5.5,0.71C5.5,0.32 5.16,0 4.75,0C4.34,0 4,0.32 4,0.71L4,8.6L1.28,5.88L1.25,5.85C0.95,5.59 0.5,5.6 0.22,5.88C-0.05,6.15 -0.07,6.57 0.15,6.86L0.22,6.94Z "/>
                    <path id="_path-1" fill-rule="evenodd" style="fill:#FFFFFF"
                          transform="translate(0 0)  rotate(0 11.5 7.875)" opacity="0.85"
                          d="M18.14,15.64C20.95,15.1 23,12.64 23,9.75L23,9.65C22.95,6.51 20.49,3.96 17.39,3.76L17.3,3.76L17.25,3.65C16.1,1.44 13.81,0 11.25,0L11.14,0C7.82,0.05 5.06,2.51 4.58,5.73L4.57,5.77L4.49,5.78C1.97,6.03 0,8.16 0,10.75C0,13.51 2.24,15.75 5,15.75C5.41,15.75 5.75,15.41 5.75,15C5.75,14.59 5.41,14.25 5,14.25C3.07,14.25 1.5,12.68 1.5,10.75C1.5,8.82 3.07,7.25 5,7.25C5.07,7.25 5.14,7.25 5.21,7.26L5.26,7.26C5.65,7.26 5.99,6.94 6,6.54C6.12,3.73 8.43,1.5 11.25,1.5C13.41,1.5 15.32,2.82 16.12,4.78C16.24,5.08 16.53,5.26 16.84,5.25C16.89,5.25 16.95,5.25 17,5.25C19.49,5.25 21.5,7.26 21.5,9.75C21.5,11.92 19.96,13.76 17.86,14.17C17.45,14.25 17.19,14.64 17.26,15.05C17.34,15.45 17.74,15.72 18.14,15.64Z "/>
                </g>
            </g>
        </g>
    </g>
</svg>