<svg xmlns="http://www.w3.org/2000/svg"
     viewBox="0 0 24 24">
    <g style="opacity:0.85;isolation:isolate">
        <path
            d="M18.25,2v1.5A2.51,2.51,0,0,1,20.5,6V7.5H3.5V5.93A2.5,2.5,0,0,1,6,3.5h.75V4a1,1,0,0,0,2,0V3.5h6.5V4a1,1,0,0,0,2,0V1.88a1,1,0,0,0-2,.12H8.75a1,1,0,0,0-2,0H6A4,4,0,0,0,2,6V18a4,4,0,0,0,4,4H18a4,4,0,0,0,4-4V6A4,4,0,0,0,18.25,2ZM20.5,18.07A2.5,2.5,0,0,1,18,20.5H5.93A2.5,2.5,0,0,1,3.5,18V9h17Z"
            transform="translate(0 0)"
            style="fill:#fff;fill-rule:evenodd"/>
    </g>
    <path
        d="M4.86,12.16v3.93a.69.69,0,0,0,.71.66H9.86a.69.69,0,0,0,.71-.66V12.16a.69.69,0,0,0-.71-.66H5.57A.69.69,0,0,0,4.86,12.16Z"
        transform="translate(0 0)"
        style="fill:#fff;fill-rule:evenodd;opacity:0.85;isolation:isolate"/>
</svg>