<svg xmlns="http://www.w3.org/2000/svg"
     viewBox="0 0 24 24">
    <path
        d="M3.3,12.5,2,14.2a1.66,1.66,0,0,0-.1,1.9l1.5,2.6v.1a1.69,1.69,0,0,0,1.7.8l2.1-.3.8.5.8,1.9a1.88,1.88,0,0,0,1.6,1.1h3.1A1.5,1.5,0,0,0,15,21.7l.8-1.9.8-.5,2.1.3a1.68,1.68,0,0,0,1.7-.9l1.5-2.6V16a1.86,1.86,0,0,0-.1-1.9l-1.1-1.6v-1L22,9.8a1.66,1.66,0,0,0,.1-1.9L20.6,5.3V5.2a1.69,1.69,0,0,0-1.7-.8l-2.1.3L16,4.2l-.8-1.9a1.88,1.88,0,0,0-1.6-1.1H10.5A1.5,1.5,0,0,0,9,2.3L8.1,4.2l-.9.5L5.1,4.5a1.69,1.69,0,0,0-1.7.8L1.9,7.9V8A1.67,1.67,0,0,0,2,9.8l1.3,1.7Z"
        transform="translate(0 0)"
        style="fill:#f78fa7;fill-rule:evenodd"/>
    <g style="opacity:0.8;isolation:isolate">
        <path
            d="M12,6.5A5.5,5.5,0,1,0,17.5,12,5.55,5.55,0,0,0,12,6.5ZM12,16a4,4,0,1,1,4-4A4,4,0,0,1,12,16Z"
            transform="translate(0 0)"
            style="fill:#fff;fill-rule:evenodd"/>
    </g>
</svg>