<svg xmlns="http://www.w3.org/2000/svg" xmlns:xlink="http://www.w3.org/1999/xlink" viewBox="0 0 24 24" fill="none"><defs><rect id="path_0" x="0" y="0" width="24" height="24" /></defs><g opacity="1" transform="translate(0 0)  rotate(0 12 12)"><mask id="bg-mask-0" fill="white"><use xlink:href="#path_0"></use></mask><g mask="url(#bg-mask-0)" ><g opacity="1" transform="translate(8.499999999749289 10)  rotate(0 3.5000000001253557 2.5000000053568483)"><path id="_path-1" fill-rule="evenodd"
style="fill:#FFFFFF" transform="translate(0 0)  rotate(0 3.5000000001253557 2.5000000053568483)" opacity="0.86" d="M7,0.71C7,0.32 6.69,0 6.3,0L0.7,0C0.54,0 0.39,0.06 0.26,0.16C-0.04,0.4 -0.09,0.85 0.15,1.16L2.95,4.73C2.99,4.77 3.02,4.81 3.06,4.84C3.36,5.09 3.81,5.04 4.05,4.73L6.85,1.16C6.95,1.03 7,0.88 7,0.71Z " /></g></g></g></svg>