<svg xmlns="http://www.w3.org/2000/svg" xmlns:xlink="http://www.w3.org/1999/xlink"
     viewBox="0 0 24 24" fill="none">
    <defs>
        <rect id="path_0" x="0" y="0" width="24" height="24"/>
    </defs>
    <g opacity="1" transform="translate(0 0)  rotate(0 12 12)">
        <mask id="bg-mask-0" fill="white">
            <use xlink:href="#path_0"></use>
        </mask>
        <g mask="url(#bg-mask-0)">
            <g opacity="1" transform="translate(2 1)  rotate(0 10 10.5)">
                <path id="_path-1" fill-rule="evenodd" style="fill:#FFFFFF"
                      transform="translate(0 0)  rotate(0 10 10.5)" opacity="0.85"
                      d="M16.25 1.01L16.25 2.51C17.51 2.64 18.5 3.7 18.5 5L18.5 6.5L1.5 6.5L1.5 4.93C1.54 3.58 2.64 2.5 4 2.5L4.75 2.5L4.75 3C4.75 3.55 5.2 4 5.75 4C6.3 4 6.75 3.55 6.75 3L6.75 2.5L13.25 2.5L13.25 3C13.25 3.55 13.7 4 14.25 4C14.8 4 15.25 3.55 15.25 3L15.25 1L15.24 0.88C15.19 0.39 14.76 0 14.25 0C13.7 0 13.25 0.45 13.25 1L6.75 1C6.75 0.45 6.3 0 5.75 0C5.2 0 4.75 0.45 4.75 1L4 1C1.79 1 0 2.79 0 5L0 17C0 19.21 1.79 21 4 21L16 21C18.21 21 20 19.21 20 17L20 5C20 2.88 18.34 1.14 16.25 1.01Z M1.5 8L1.5 17C1.5 18.36 2.58 19.46 3.93 19.5L4 19.5L16 19.5C17.36 19.5 18.46 18.42 18.5 17.07L18.5 17L18.5 8L1.5 8Z M2.85714 11.16L2.85714 15.09C2.85714 15.45 3.17714 15.75 3.56714 15.75L7.85714 15.75C8.24714 15.75 8.56714 15.45 8.56714 15.09L8.56714 11.16C8.56714 10.8 8.24714 10.5 7.85714 10.5L3.56714 10.5C3.17714 10.5 2.85714 10.8 2.85714 11.16Z "/>
            </g>
        </g>
    </g>
</svg>