<svg xmlns="http://www.w3.org/2000/svg" xmlns:xlink="http://www.w3.org/1999/xlink"
     viewBox="0 0 24 24" fill="none">
    <defs>
        <rect id="path_0" x="0" y="0" width="24" height="24"/>
    </defs>
    <g opacity="1" transform="translate(0 0)  rotate(0 12 12)">
        <mask id="bg-mask-0" fill="white">
            <use xlink:href="#path_0"></use>
        </mask>
        <g mask="url(#bg-mask-0)">
            <g opacity="1" transform="translate(4.21212759 0.712127586)  rotate(0 7.787872405000001 11.287816157)">
                <path id="_形状" fill-rule="evenodd" style="fill:#FFFFFF"
                      transform="translate(0 0)  rotate(0 7.787872405000001 11.287816157)" opacity="1"
                      d="M12.32 20.69L12.33 20.54C12.48 19.29 12.89 17.94 13.58 16.49C13.64 16.43 13.69 16.36 13.75 16.3C13.77 16.31 13.79 16.33 13.81 16.34C14.04 16.48 14.35 16.41 14.5 16.17L15.01 15.31L15.03 15.27C15.15 15.04 15.07 14.76 14.84 14.62L14.83 14.62C15.31 13.61 15.58 12.48 15.58 11.29C15.58 10.13 15.32 9.03 14.87 8.04C15.08 7.89 15.15 7.6 15.01 7.37L14.5 6.51C14.35 6.28 14.04 6.2 13.81 6.34L13.8 6.34C13.75 6.27 13.68 6.2 13.62 6.13L13.58 6.08C12.89 4.63 12.48 3.28 12.33 2.04L12.31 1.83C12.17 0.78 11.28 0 10.23 0L5.32 0L5.26 0C4.19 0.03 3.31 0.86 3.23 1.93C3.11 3.4 2.72 4.76 2.05 6.02C0.78 7.41 0 9.26 0 11.29C0 13.32 0.78 15.17 2.05 16.56C2.72 17.82 3.11 19.18 3.23 20.64C3.31 21.73 4.23 22.58 5.32 22.58L10.23 22.58C11.31 22.58 12.21 21.76 12.32 20.69Z M1 11.29C1 15.04 4.04 18.08 7.79 18.08C11.54 18.08 14.58 15.04 14.58 11.29C14.58 7.54 11.54 4.5 7.79 4.5C4.04 4.5 1 7.54 1 11.29Z "/>
                <path id="_路径" fill-rule="evenodd" style="fill:#FFFFFF"
                      transform="translate(1.7878724100000003 5.287872414)  rotate(0 6 6)" opacity="0.600000024"
                      d="M0,6C0,9.31 2.69,12 6,12C9.31,12 12,9.31 12,6C12,2.69 9.31,0 6,0C2.69,0 0,2.69 0,6Z "/>
            </g>
        </g>
    </g>
</svg>