<svg xmlns="http://www.w3.org/2000/svg" xmlns:xlink="http://www.w3.org/1999/xlink"
     viewBox="0 0 24 24" fill="none">
    <defs>
        <rect id="path_0" x="0" y="0" width="24" height="24"/>
    </defs>
    <g opacity="1" transform="translate(0 0)  rotate(0 12 12)">
        <mask id="bg-mask-0" fill="white">
            <use xlink:href="#path_0"></use>
        </mask>
        <g mask="url(#bg-mask-0)">
            <g opacity="1" transform="translate(0.200101292 3.2)  rotate(0 11.90040639101613 8.89979875)">
                <g opacity="1" transform="translate(0 0)  rotate(0 11.90040639101613 8.89979875)">
                    <path id="_形状结合" fill-rule="evenodd" style="fill:#FFFFFF"
                          transform="translate(0 0)  rotate(0 9.002122354 8.8002024)" opacity="0.85"
                          d="M5.8,16L5.59,15.99C3.37,15.89 1.6,14.05 1.6,11.8C1.6,10.11 2.6,8.61 4.12,7.95C4.39,7.83 4.57,7.58 4.6,7.3C4.62,7.25 4.63,7.19 4.64,7.14C4.97,4 7.62,1.6 10.8,1.6C13.18,1.6 15.28,2.95 16.31,4.96C16.79,4.85 17.29,4.8 17.8,4.8C17.87,4.8 17.94,4.8 18,4.8C16.82,1.96 14.02,0 10.8,0C6.9,0 3.63,2.87 3.08,6.68C1.21,7.67 0,9.62 0,11.8C0,15 2.6,17.6 5.8,17.6L13.88,17.6C13.24,17.16 12.67,16.62 12.2,16L5.8,16Z "/>
                    <path id="_形状结合" fill-rule="evenodd" style="fill:#FFFFFF"
                          transform="translate(17.049898708 5.8)  rotate(0 3.3754570370161296 5.415392672102962)"
                          opacity="0.85"
                          d="M6.52 7.63L6.58 7.42C6.74 6.78 6.78 6.12 6.73 5.48C6.65 4.61 6.39 3.79 5.98 3.06C5.92 2.96 5.86 2.85 5.79 2.75C5.79 2.74 5.78 2.72 5.77 2.71C5.66 2.54 5.53 2.37 5.4 2.21Q5.025 1.73 4.53 1.34C4.47 1.3 4.41 1.25 4.35 1.2L4.25 1.13C4.23 1.11 4.2 1.09 4.18 1.07C4.15 1.06 4.13 1.04 4.1 1.02C3.14 0.38 1.99 0 0.75 0C0.34 0 0 0.34 0 0.75C0 1.16 0.34 1.5 0.75 1.5C1.55 1.5 2.3 1.71 2.95 2.07L3.14 2.19L3.17 2.21L3.18 2.21L3.19 2.22L3.21 2.23L3.24 2.25L3.26 2.27L3.32 2.3C3.79 2.63 4.2 3.05 4.51 3.53L4.57 3.62L4.63 3.72L4.63 3.73L4.67 3.79L4.7 3.84L4.72 3.87L4.71 3.86L4.73 3.89L4.74 3.91L4.78 3.99C5.01 4.46 5.16 4.96 5.22 5.49C5.24 5.65 5.25 5.83 5.25 5.99C5.25 6.5 5.17 7.01 4.99 7.5L4.35 7.5C4.02 7.5 3.75 7.77 3.75 8.1L3.75 10.43C3.75 10.52 3.78 10.6 3.83 10.67C3.96 10.84 4.21 10.88 4.39 10.75L4.48 10.68C4.61 10.59 4.7 10.52 4.76 10.46C5.22 10.05 5.62 9.56 5.94 9.02L5.95 9C5.96 8.97 5.98 8.94 6 8.91C6.01 8.88 6.03 8.85 6.05 8.82C6.06 8.79 6.08 8.76 6.1 8.73C6.18 8.57 6.25 8.41 6.31 8.25C6.33 8.21 6.35 8.17 6.36 8.13C6.38 8.08 6.4 8.03 6.41 7.98C6.42 7.95 6.43 7.93 6.44 7.9L6.5 7.72L6.51 7.7L6.51571 7.66L6.51 7.68L6.52 7.63Z"/>
                    <path id="_形状结合" fill-rule="evenodd" style="fill:#FFFFFF"
                          transform="translate(11.799901542187634 6.968108068355275)  rotate(0 3.3754568829061835 5.415744715822362)"
                          opacity="0.85"
                          d="M3.54 8.6L3.51 8.58L3.44 8.53L3.24 8.38C2.85 8.08 2.51 7.71 2.24 7.3L2.25 7.32L2.22 7.28L2.18 7.21L2.12 7.12L2.12 7.1L2.08 7.04L2.04 6.97L2.01 6.92L1.98 6.84L1.87 6.61C1.69 6.2 1.58 5.78 1.53 5.35C1.51 5.18 1.5 5.01 1.5 4.84C1.5 4.33 1.58 3.82 1.76 3.33L2.4 3.33C2.73 3.33 3 3.06 3 2.73L3 0.4C3 0.32 2.97 0.23 2.92 0.17C2.79 -0.01 2.54 -0.05 2.37 0.08L2.27 0.15C2.15 0.23 2.06 0.31 2 0.36C1.53 0.78 1.13 1.27 0.81 1.81L0.8 1.83C0.79 1.86 0.77 1.89 0.75 1.92C0.74 1.95 0.72 1.98 0.71 2L0.65 2.1C0.57 2.26 0.5 2.42 0.44 2.59C0.42 2.63 0.4 2.67 0.39 2.71C0.37 2.75 0.36 2.79 0.34 2.84C0.33 2.88 0.31 2.91 0.3 2.95L0.26 3.08L0.24 3.14L0.21 3.27L0.21 3.26L0.2 3.3L0.21 3.27L0.17 3.4C0.01 4.05 -0.03 4.71 0.02 5.35C0.1 6.23 0.36 7.04 0.77 7.77C0.83 7.88 0.89 7.98 0.96 8.08C0.97 8.1 0.97 8.11 0.98 8.12C1.09 8.29 1.22 8.46 1.35 8.62Q1.725 9.1 2.22 9.49C2.28 9.54 2.34 9.58 2.4 9.63C2.43 9.65 2.46 9.68 2.5 9.7C2.52 9.72 2.55 9.74 2.57 9.76C2.6 9.77 2.62 9.79 2.65 9.81C3.61 10.45 4.76 10.83 6 10.83C6.42 10.83 6.75 10.5 6.75 10.08C6.75 9.67 6.42 9.33 6 9.33C5.2 9.33 4.45 9.12 3.8 8.76L3.64 8.66L3.58 8.62L3.59 8.63L3.54 8.6Z"/>
                </g>
            </g>
        </g>
    </g>
</svg>