<svg xmlns="http://www.w3.org/2000/svg"
     xmlns:xlink="http://www.w3.org/1999/xlink"
     viewBox="0 0 24 24"
     fill="none">
    <defs>
        <rect
            id="path_0"
            x="0"
            y="0"
            width="24"
            height="24"/>
    </defs>
    <g
        opacity="1"
        transform="translate(0 0)  rotate(0 12 12)">
        <mask
            id="bg-mask-0"
            fill="white">
            <use xlink:href="#path_0"></use>
        </mask>
        <g mask="url(#bg-mask-0)">
            <path
                id="路径 1"
                fill-rule="evenodd"
                fill="#5ba854"
                transform="translate(1.6453602182249885 1.200000000000001)  rotate(0 10.35463978177501 10.8)"
                opacity="1"
                d="M1.65,11.3L0.35,13C-0.05,13.6 -0.15,14.3 0.25,14.9L1.75,17.5L1.75,17.6C2.15,18.2 2.75,18.5 3.45,18.4L5.55,18.1L6.35,18.6L7.15,20.5C7.45,21.1 8.05,21.6 8.75,21.6L11.75,21.6L11.85,21.6C12.55,21.6 13.15,21.2 13.35,20.5L14.15,18.6L14.95,18.1L17.05,18.4C17.75,18.5 18.45,18.1 18.75,17.5L20.25,14.9L20.25,14.8C20.55,14.2 20.55,13.5 20.15,12.9L19.05,11.3L19.05,10.3L20.35,8.6C20.75,8 20.85,7.3 20.45,6.7L18.95,4.1L18.95,4C18.55,3.4 17.95,3.1 17.25,3.2L15.15,3.5L14.35,3L13.55,1.1C13.25,0.5 12.65,0 11.95,0L8.95,0L8.85,0C8.15,0 7.55,0.4 7.35,1.1L6.45,3L5.55,3.5L3.45,3.3C2.75,3.2 2.15,3.5 1.75,4.1L0.25,6.7L0.25,6.8C-0.05,7.4 -0.05,8.1 0.35,8.6L1.65,10.3L1.65,11.3Z "/>
            <path
                id="分组 1"
                fill-rule="evenodd"
                fill="#FFFFFF"
                transform="translate(6.5 6.5)  rotate(0 5.5 5.5)"
                opacity="0.8"
                d="M0 5.5C0 8.5 2.5 11 5.5 11C8.5 11 11 8.5 11 5.5C11 2.5 8.5 0 5.5 0C2.5 0 0 2.5 0 5.5Z M9.5 5.5C9.5 3.3 7.7 1.5 5.5 1.5C3.3 1.5 1.5 3.3 1.5 5.5C1.5 7.7 3.3 9.5 5.5 9.5C7.7 9.5 9.5 7.7 9.5 5.5Z "/>
        </g>
    </g>
</svg>