<svg xmlns="http://www.w3.org/2000/svg" xmlns:xlink="http://www.w3.org/1999/xlink"
     viewBox="0 0 12 12" fill="none">
    <defs>
        <rect id="path_0" x="0" y="0" width="12" height="12"/>
    </defs>
    <g opacity="1" transform="translate(0 0)  rotate(0 6 6)">
        <mask id="bg-mask-0" fill="white">
            <use xlink:href="#path_0"></use>
        </mask>
        <g mask="url(#bg-mask-0)">
            <g opacity="1"
               transform="translate(0.7184774877349251 0.7187833271115542)  rotate(0 5.281378215043765 5.140608336444223)">
                <path id="_path-1" fill-rule="evenodd" style="fill:#FFFFFF"
                      transform="translate(0 0)  rotate(0 5.281378215043765 5.140608336444223)" opacity="0.4"
                      d="M5.28152 10.2812C6.48152 10.2812 7.58152 9.86122 8.45152 9.15122L8.47152 9.17122L9.17152 9.88122C9.37152 10.0812 9.68152 10.0812 9.88152 9.88122C10.0815 9.68122 10.0815 9.37122 9.88152 9.17122L9.17152 8.47122C9.17152 8.46122 9.16152 8.45122 9.15152 8.45122C9.86152 7.58122 10.2815 6.48122 10.2815 5.28122C10.2815 2.52122 8.04152 0.281217 5.28152 0.281217C2.52152 0.281217 0.281523 2.52122 0.281523 5.28122C0.281523 6.48122 0.701522 7.58122 1.41152 8.45122L1.39152 8.47122L0.681522 9.17122C0.481523 9.37122 0.481523 9.68122 0.681522 9.88122C0.881523 10.0812 1.19152 10.0812 1.39152 9.88122L2.09152 9.17122L2.11152 9.15122C2.98152 9.86122 4.08152 10.2812 5.28152 10.2812Z M5.62711 6.08309L5.55711 6.11309L7.22711 7.78309C7.37711 7.93309 7.61711 7.93309 7.75711 7.78309C7.89711 7.65309 7.90711 7.44309 7.79711 7.30309L7.75711 7.25309L6.09711 5.59309C6.01711 5.81309 5.84711 5.99309 5.62711 6.08309Z M4.92652 5.39622C4.92652 5.39622 4.92652 5.40622 4.92652 5.41622C4.93652 5.42622 4.93652 5.42622 4.93652 5.43622C4.94652 5.44622 4.94652 5.45622 4.95652 5.46622C4.95652 5.46622 4.96652 5.47622 4.96652 5.48622C4.96652 5.48622 4.97652 5.49622 4.97652 5.49622C4.98652 5.50622 4.98652 5.51622 4.99652 5.52622L5.00652 5.53622C5.01652 5.54622 5.02652 5.55622 5.03652 5.55622C5.03652 5.56622 5.03652 5.56622 5.04652 5.57622C5.05652 5.57622 5.05652 5.58622 5.06652 5.58622C5.07652 5.59622 5.07652 5.59622 5.08652 5.60622L5.10652 5.61622C5.11652 5.61622 5.12652 5.62622 5.12652 5.62622C5.13652 5.62622 5.14652 5.63622 5.15652 5.63622C5.16652 5.63622 5.17652 5.63622 5.17652 5.64622L5.19652 5.64622L5.21652 5.64622L5.23652 5.65622L5.26652 5.65622L5.27652 5.65622L5.28652 5.65622C5.46652 5.65622 5.62652 5.51622 5.65652 5.33622L5.65652 5.27622L5.65652 2.78622C5.65652 2.57622 5.48652 2.40622 5.28652 2.40622C5.09652 2.40622 4.93652 2.54622 4.90652 2.72622L4.90652 2.78622L4.90652 5.27622L4.90652 5.31622L4.91652 5.35622L4.91652 5.36622C4.91652 5.37622 4.91652 5.38622 4.92652 5.39622Z M1.18 0.11C0.78 0.42 0.42 0.78 0.11 1.18C-0.06 1.4 -0.03 1.71 0.19 1.89C0.41 2.06 0.72 2.02 0.89 1.8C1.16 1.46 1.46 1.16 1.8 0.89C2.02 0.72 2.06 0.41 1.89 0.19C1.71 -0.03 1.4 -0.06 1.18 0.11Z M8.68186 0.19C8.51186 0.41 8.54186 0.72 8.76186 0.89C9.10186 1.16 9.40186 1.46 9.67186 1.8C9.84186 2.02 10.1519 2.05 10.3719 1.88C10.5919 1.71 10.6219 1.4 10.4519 1.18C10.1419 0.78 9.78186 0.42 9.38186 0.11C9.16186 -0.06 8.85186 -0.03 8.68186 0.19Z "/>
            </g>
        </g>
    </g>
</svg>