<svg xmlns="http://www.w3.org/2000/svg" viewBox="0 0 700 741.71"><rect x="48" y="462" width="604" height="238" rx="48" style="fill:#2e3033"/><rect x="48" width="604" height="198" rx="48" style="fill:#2e3033"/><rect y="210" width="700" height="240" rx="48" style="fill:#2e3033"/><path d="M184,280.75H643a12,12,0,0,1,12,12h0a12,12,0,0,1-12,12H184a12,12,0,0,1-12-12h0A12,12,0,0,1,184,280.75Z" style="fill:#fff"/><path d="M303.24,365H643.49a12,12,0,0,1,12,12h0a12,12,0,0,1-12,12H303.24a12,12,0,0,1-12-12h0A12,12,0,0,1,303.24,365Z" style="fill:#fff;opacity:0.6000000238418579;isolation:isolate"/><path d="M86.14,289.85a41.23,41.23,0,0,0-41.25,41.21v0a41.25,41.25,0,1,0,41.25-41.25Zm0,76.88A35.63,35.63,0,0,1,50.52,331.1v-.05a35.6,35.6,0,0,1,35.62-35.58h0a35.63,35.63,0,0,1,0,71.26Zm19.21-48-21,21-.15.11a2.83,2.83,0,0,1-3.86-.11L68.8,328.17l-.11-.11a2.84,2.84,0,0,0-3.86.11A2.59,2.59,0,0,0,64,330v.79a2.83,2.83,0,0,0,.83,1.36v0L77.76,345l.15.15A6.57,6.57,0,0,0,87,345l22.31-22.32.11-.11a2.81,2.81,0,0,0-4.09-3.86Z" style="fill:#e08a2d;fill-rule:evenodd"/><circle cx="193.5" cy="376.5" r="22.5" style="fill:#fff;opacity:0.4000000059604645;isolation:isolate"/><circle cx="253.5" cy="376.5" r="22.5" style="fill:#fff;opacity:0.4000000059604645;isolation:isolate"/><circle cx="84.75" cy="316.71" r="35" style="fill:#fff;opacity:0.20000000298023224;isolation:isolate"/><circle cx="84.75" cy="316.71" r="25" style="fill:#f2f2f2;opacity:0.800000011920929;isolation:isolate"/><path d="M412.75,669.71c-4-10.2-7.26-19.24-9.91-26.86-1.14-3.32-2.17-6.38-3.09-9.14-2.57-7.78-4-12.58-5-19-1.23-7.93-.94-12.73-1-23,0-1.32-.12-18.67-1-29-1.35-15.93-5.72-27.69-9-37-3.46-9.83-7.3-17.56-15-33,0,0-7.92-15.91-18-32-2.41-3.85-1.63-2.26-4-6s-5.61-9.23-8-10a36.54,36.54,0,0,0-4-1h0c-8.83-1.69-19.76-.43-22,0a4.81,4.81,0,0,1-2,0,5,5,0,0,1-2-1c-9.1-8.48-15.37-14.49-20-19,0,0-2.52-2.46-9-8-4.86-4.16-7-5.73-10-7a30.19,30.19,0,0,0-8-2c-11.65-1-21.59,8.6-23,10-2.08-2.2-5.14-5.36-9-9-4.54-4.29-6.81-6.44-9-8-5.67-4.06-16.17-8.11-25-5-10.34,3.65-17.48,16.81-16,32l-81-118a16.57,16.57,0,0,0-29,16l81,160c-4.11,7.8-7.43,14.58-10,20-2.47,5.22-3.82,8-4,12-.23,5.43,1.76,9.38,4,14,0,0,5.91,12.17,11,24,3.62,8.39,6.14,15.25,12,24,2.53,3.77,4.15,5.57,16,19l15,17a66.22,66.22,0,0,0,9,10,64,64,0,0,0,11,8c5.95,3.5,19.14,13.47,51,42q3.22,5.76,6.42,11.89c2.55,4.87,5.08,9.89,7.58,15.11,6.7,14,12.3,27.39,17,40a229.22,229.22,0,0,0,126-51Q417.76,680.21,412.75,669.71Z" style="fill:#dcbcb1"/><path d="M212.75,463.71a4.94,4.94,0,0,0,2-2c1.76-3.34-3.6-10.23-5-12-11-13.95-14.87-15.2-20-24a35.84,35.84,0,0,1-5-14,33.45,33.45,0,0,1,0-8c-.54,1-1.25,2.33-2,4a38.1,38.1,0,0,0-3,9,29.45,29.45,0,0,0,0,10c14.42,21.16,25.93,36,29,37A5.74,5.74,0,0,0,212.75,463.71Z" style="fill:#d8af9f"/><path d="M238.75,416.71a16.42,16.42,0,0,1,5-4,10,10,0,0,0,0,4c.61,2.89,2.33,4.32,6,9,1,1.31,2,2.67,3,4,1.95,2.57,4.7,6.27,8,11a16.75,16.75,0,0,1,1,4,15.75,15.75,0,0,1,0,4q-6.49-8.94-13-18Q243.73,423.69,238.75,416.71Z" style="fill:#d8af9f"/><path d="M305.75,439.71c6.71,8.88,11,14.6,12,16,.19.26.77,1.1,1,1s0-.81,0-1c0,0-.4-2.07,1-6,1-2.7,7-5.59,15-6a60.51,60.51,0,0,0-22,0,13.22,13.22,0,0,1-3-1A12.83,12.83,0,0,1,305.75,439.71Z" style="fill:#d8af9f"/><path d="M150.75,484.71c6.55,11.53,11.93,21.39,16,29,14.89,27.78,7.78,16.85,12,24a49.56,49.56,0,0,1,7,18c.5,3.07,1.4,8.59-1,10-2.19,1.3-6.44-1.29-9-4-4.79-5.08-3.72-10.65-6-20-.88-3.61-1.54-4.83-7-17q-5.17-11.54-15-34l2-4Z" style="fill:#d8af9f"/><path d="M69.75,315.71c-.22-4.51,1.85-11.15,8-14a14.36,14.36,0,0,1,16,3l9,18c0,.52.43,8.25-6,13a15.38,15.38,0,0,1-14,2,94.68,94.68,0,0,1-8-11C71.52,321.52,69.91,318.86,69.75,315.71Z" style="fill:#e2d2cc"/></svg>