<svg xmlns="http://www.w3.org/2000/svg"
     viewBox="0 0 700 700">
    <defs>
        <style>
            .a{fill:#2e3033;}.b{fill:none;stroke:#18181a;stroke-linecap:round;stroke-width:8px;}.b,.h{opacity:0.2;}.c,.d,.h{fill:#fff;}.d{opacity:0.15;}.e{opacity:0.05;}.f,.g{fill:#e08a2d;}.f{opacity:0.3;}.i{fill:#f2f2f2;opacity:0.8;}.j{fill:#dcbcb1;}.k{fill:#d8af9f;}.l{fill:#e2d2cc;}
        </style>
    </defs>
    <path
        class="a"
        d="M48,0H652a48,48,0,0,1,48,48V688a12,12,0,0,1-12,12H12A12,12,0,0,1,0,688V48A48,48,0,0,1,48,0Z"/>
    <path
        class="b"
        d="M370,79.69l27.18-10.82a8,8,0,0,1,5.94,0L430,79.69"
        transform="translate(-50 -50)"/>
    <rect
        class="c"
        x="40"
        y="42"
        width="220"
        height="24"
        rx="12"/>
    <rect
        class="c"
        x="572"
        y="51"
        width="88"
        height="24"
        rx="12"/>
    <rect
        class="d"
        x="48"
        y="128"
        width="508"
        height="80"
        rx="40"/>
    <rect
        class="d"
        x="572"
        y="128"
        width="80"
        height="80"
        rx="40"/>
    <rect
        class="d"
        x="48"
        y="226"
        width="80"
        height="80"
        rx="40"/>
    <rect
        class="d"
        x="144"
        y="226"
        width="80"
        height="80"
        rx="40"/>
    <rect
        class="e"
        x="452"
        y="226"
        width="200"
        height="80"
        rx="40"/>
    <rect
        class="d"
        x="240"
        y="226"
        width="91"
        height="80"
        rx="40"/>
    <rect
        class="d"
        x="347"
        y="226"
        width="91"
        height="80"
        rx="40"/>
    <rect
        class="f"
        x="40"
        y="348"
        width="612"
        height="80"
        rx="40"/>
    <circle
        class="g"
        cx="64"
        cy="499"
        r="24"/>
    <rect
        class="f"
        x="546"
        y="487"
        width="106"
        height="24"
        rx="12"/>
    <rect
        class="g"
        x="120"
        y="486"
        width="242"
        height="24"
        rx="12"/>
    <circle
        class="g"
        cx="64"
        cy="607"
        r="24"/>
    <rect
        class="f"
        x="546"
        y="595"
        width="106"
        height="24"
        rx="12"/>
    <rect
        class="g"
        x="120"
        y="594"
        width="242"
        height="24"
        rx="12"/>
    <rect
        class="h"
        x="314"
        width="70"
        height="200"
        rx="35"/>
    <circle
        class="h"
        cx="349"
        cy="35"
        r="35"/>
    <circle
        class="i"
        cx="349"
        cy="35"
        r="25"/>
    <path
        class="j"
        d="M727,438c-4-10.2-7.27-19.24-9.91-26.86-1.15-3.32-2.18-6.38-3.09-9.14-2.57-7.78-4-12.58-5-19-1.24-7.93-.94-12.73-1-23,0-1.32-.12-18.67-1-29-1.36-15.93-5.72-27.69-9-37-3.46-9.83-7.31-17.56-15-33,0,0-7.93-15.91-18-32-2.41-3.85-1.63-2.26-4-6s-5.61-9.23-8-10a35.8,35.8,0,0,0-4-1h0c-8.83-1.69-19.77-.43-22,0a4.61,4.61,0,0,1-4-1c-9.1-8.48-15.38-14.49-20-19,0,0-2.52-2.46-9-8-4.87-4.16-7-5.73-10-7a30,30,0,0,0-8-2c-11.66-1.05-21.59,8.59-23,10-2.08-2.2-5.14-5.36-9-9-4.54-4.29-6.81-6.44-9-8-5.67-4.06-16.17-8.11-25-5-10.35,3.65-17.48,16.81-16,32L413,77a16.57,16.57,0,0,0-29,16l81,160c-4.11,7.8-7.44,14.58-10,20-2.47,5.22-3.83,8-4,12-.24,5.43,1.76,9.38,4,14,0,0,5.9,12.17,11,24,3.61,8.39,6.13,15.25,12,24,2.53,3.77,4.14,5.57,16,19l15,17a64.79,64.79,0,0,0,20,18c6,3.5,19.14,13.47,51,42,2.14,3.83,4.29,7.81,6.42,11.89,2.55,4.87,5.08,9.89,7.58,15.11,6.7,14,12.3,27.39,17,40a229.24,229.24,0,0,0,126-51Z"
        transform="translate(-50 -50)"/>
    <path
        class="k"
        d="M527,232a4.93,4.93,0,0,0,2-2c1.75-3.34-3.6-10.23-5-12-11-13.95-14.88-15.2-20-24a35.83,35.83,0,0,1-5-14,32.83,32.83,0,0,1,0-8c-.54,1-1.26,2.33-2,4a37.26,37.26,0,0,0-3,9,29.25,29.25,0,0,0,0,10c14.42,21.16,25.93,36,29,37A5.75,5.75,0,0,0,527,232Z"
        transform="translate(-50 -50)"/>
    <path
        class="k"
        d="M553,185a16.32,16.32,0,0,1,5-4,10.14,10.14,0,0,0,0,4c.6,2.89,2.33,4.32,6,9,1,1.31,2,2.67,3,4,2,2.57,4.69,6.27,8,11a16.62,16.62,0,0,1,1,8q-6.5-8.94-13-18Q558,192,553,185Z"
        transform="translate(-50 -50)"/>
    <path
        class="k"
        d="M620,208c6.71,8.88,11,14.6,12,16,.18.26.77,1.1,1,1s0-.81,0-1c0,0-.41-2.07,1-6,1-2.7,7-5.59,15-6a60.51,60.51,0,0,0-22,0,12.65,12.65,0,0,1-3-1,12.79,12.79,0,0,1-3-2A11.65,11.65,0,0,1,620,208Z"
        transform="translate(-50 -50)"/>
    <path
        class="k"
        d="M465,253c6.54,11.53,11.92,21.39,16,29,14.89,27.78,7.77,16.84,12,24a49.46,49.46,0,0,1,7,18c.5,3.07,1.39,8.59-1,10-2.2,1.3-6.44-1.29-9-4-4.79-5.08-3.72-10.65-6-20-.88-3.61-1.54-4.83-7-17-3.45-7.7-8.46-19-15-34,.67-1.33,1.33-2.67,2-4C464.33,254.33,464.67,253.67,465,253Z"
        transform="translate(-50 -50)"/>
    <path
        class="l"
        d="M384,84c-.22-4.51,1.85-11.15,8-14a14.36,14.36,0,0,1,16,3l9,18c0,.52.42,8.25-6,13s-13.47,2.2-14,2a93.45,93.45,0,0,1-8-11C385.77,89.81,384.15,87.15,384,84Z"
        transform="translate(-50 -50)"/>
</svg>