<svg xmlns="http://www.w3.org/2000/svg" viewBox="0 0 700 700"><rect y="550" width="526" height="150" rx="48" style="fill:#2e3033"/><path d="M48,550H478a48,48,0,0,1,48,48v24H0V598A48,48,0,0,1,48,550Z" style="fill:#fff;opacity:0.20000000298023224;isolation:isolate"/><rect x="550" width="150" height="526" rx="48" style="fill:#2e3033"/><path d="M598,0h54a48,48,0,0,1,48,48V72H550V48A48,48,0,0,1,598,0Z" style="fill:#fff;opacity:0.20000000298023224;isolation:isolate"/><rect x="550" y="550" width="150" height="150" rx="48" style="fill:#2e3033"/><path d="M598,550h54a48,48,0,0,1,48,48v24H550V598A48,48,0,0,1,598,550Z" style="fill:#fff;opacity:0.20000000298023224;isolation:isolate"/><rect width="526" height="526" rx="48" style="fill:#2e3033"/><rect width="526" height="526" rx="48" style="fill:#e08a2d;opacity:0.30000001192092896;isolation:isolate"/><path d="M48,0H478a48,48,0,0,1,48,48V72H0V48A48,48,0,0,1,48,0Z" style="fill:#e08a2d;isolation:isolate"/><path d="M546.36,673.64a90,90,0,1,0,0-127.28,90,90,0,0,0,0,127.28Z" style="fill:#e08a2d;fill-rule:evenodd"/><path d="M616.13,652.91l0-85.84a6.14,6.14,0,0,0-12.28-.34v37.11H567.1a6.14,6.14,0,0,0-.34,12.28h37.11v36.77a6.14,6.14,0,0,0,12.28.34h0Zm36.77-36.77a6.14,6.14,0,0,0,.34-12.28h-29l0,12.24Z" style="fill:#fff;fill-rule:evenodd"/><path d="M138.26,125.16H483.17a9,9,0,0,1,9,9h0a9,9,0,0,1-9,9H138.26a9,9,0,0,1-9-9h0A9,9,0,0,1,138.26,125.16Z" style="fill:#fff"/><path d="M227.86,188.47H483.54a9,9,0,0,1,9,9h0a9,9,0,0,1-9,9H227.86a9,9,0,0,1-9-9h0A9,9,0,0,1,227.86,188.47Z" style="fill:#fff;opacity:0.6000000238418579;isolation:isolate"/><path d="M64.73,132a31,31,0,0,0-31,31h0a31,31,0,1,0,31-31h0Zm0,57.77A26.77,26.77,0,0,1,38,163v0a26.76,26.76,0,0,1,26.77-26.74h0a26.78,26.78,0,0,1,0,53.55Z" style="fill:#fff;fill-rule:evenodd"/><circle cx="145.4" cy="197.11" r="16.91" style="fill:#fff;opacity:0.4000000059604645;isolation:isolate"/><circle cx="190.49" cy="197.11" r="16.91" style="fill:#fff;opacity:0.4000000059604645;isolation:isolate"/></svg>