<svg xmlns="http://www.w3.org/2000/svg"
     xmlns:xlink="http://www.w3.org/1999/xlink"
     viewBox="0 0 700 742">
    <defs>
        <style>
            .a,.d,.f,.g,.h{fill:#fff;}.b{fill:#2e3033;}.c{fill:#e08a2d;opacity:0.3;}.d{opacity:0.6;}.e{mask:url(#a);}.f{fill-rule:evenodd;}.g{opacity:0.4;}.h{opacity:0.2;}.i{fill:#f2f2f2;opacity:0.8;}.j{fill:#dcbcb1;}.k{fill:#d8af9f;}.l{fill:#e2d2cc;}
        </style>
        <mask
            id="a"
            x="41.14"
            y="286.1"
            width="90"
            height="90"
            maskUnits="userSpaceOnUse">
            <g transform="translate(-50 -50)">
                <rect
                    class="a"
                    x="91.14"
                    y="336.1"
                    width="90"
                    height="90"/>
            </g>
        </mask>
    </defs>
    <rect
        class="b"
        x="48"
        y="462"
        width="604"
        height="238"
        rx="48"/>
    <rect
        class="b"
        x="48"
        width="604"
        height="198"
        rx="48"/>
    <rect
        class="b"
        y="210"
        width="700"
        height="240"
        rx="48"/>
    <rect
        class="c"
        y="210"
        width="700"
        height="240"
        rx="48"/>
    <rect
        class="a"
        x="172"
        y="280.75"
        width="483"
        height="24"
        rx="12"/>
    <rect
        class="d"
        x="291.24"
        y="365"
        width="364.25"
        height="24"
        rx="12"/>
    <g class="e">
        <path
            class="f"
            d="M94.89,381.1a41.25,41.25,0,1,0,41.25-41.25A41.23,41.23,0,0,0,94.89,381.1Zm5.63,0a35.63,35.63,0,1,0,35.62-35.63A35.6,35.6,0,0,0,100.52,381.1Zm14.31,1,12.93,12.94.15.15a6.57,6.57,0,0,0,9.12-.15l22.31-22.32.11-.11a2.81,2.81,0,0,0-4.09-3.86l-21,21-.15.11a2.83,2.83,0,0,1-3.86-.11L118.8,378.17l-.11-.11a2.84,2.84,0,0,0-3.86.11A2.61,2.61,0,0,0,114,380v.38l0,.41A2.81,2.81,0,0,0,114.83,382.15Z"
            transform="translate(-50 -50)"/>
    </g>
    <circle
        class="g"
        cx="193.5"
        cy="376.5"
        r="22.5"/>
    <circle
        class="g"
        cx="253.5"
        cy="376.5"
        r="22.5"/>
    <circle
        class="h"
        cx="343"
        cy="317"
        r="35"/>
    <circle
        class="i"
        cx="343"
        cy="317"
        r="25"/>
    <path
        class="j"
        d="M721,720c-4-10.2-7.27-19.24-9.91-26.86-1.15-3.32-2.18-6.38-3.09-9.14-2.57-7.78-4-12.58-5-19-1.24-7.93-.94-12.73-1-23,0-1.32-.12-18.67-1-29-1.36-15.93-5.72-27.69-9-37-3.46-9.83-7.31-17.56-15-33,0,0-7.93-15.91-18-32-2.41-3.85-1.63-2.26-4-6s-5.61-9.23-8-10a35.8,35.8,0,0,0-4-1h0c-8.83-1.69-19.77-.43-22,0a4.61,4.61,0,0,1-4-1c-9.1-8.48-15.38-14.49-20-19,0,0-2.52-2.46-9-8-4.87-4.16-7-5.73-10-7a30,30,0,0,0-8-2c-11.66-1.05-21.59,8.59-23,10-2.08-2.2-5.14-5.36-9-9-4.54-4.29-6.81-6.44-9-8-5.67-4.06-16.17-8.11-25-5-10.35,3.65-17.48,16.81-16,32L407,359a16.57,16.57,0,0,0-29,16l81,160c-4.11,7.8-7.44,14.58-10,20-2.47,5.22-3.83,8-4,12-.24,5.43,1.76,9.38,4,14,0,0,5.9,12.17,11,24,3.61,8.39,6.13,15.25,12,24,2.53,3.77,4.14,5.57,16,19l15,17a64.79,64.79,0,0,0,20,18c6,3.5,19.14,13.47,51,42,2.14,3.83,4.29,7.81,6.42,11.89,2.55,4.87,5.08,9.89,7.58,15.11,6.7,14,12.3,27.39,17,40a229.24,229.24,0,0,0,126-51Z"
        transform="translate(-50 -50)"/>
    <path
        class="k"
        d="M521,514a4.93,4.93,0,0,0,2-2c1.75-3.34-3.6-10.23-5-12-11-13.95-14.88-15.2-20-24a35.83,35.83,0,0,1-5-14,32.83,32.83,0,0,1,0-8c-.54,1-1.26,2.33-2,4a37.26,37.26,0,0,0-3,9,29.25,29.25,0,0,0,0,10c14.42,21.16,25.93,36,29,37A5.75,5.75,0,0,0,521,514Z"
        transform="translate(-50 -50)"/>
    <path
        class="k"
        d="M547,467a16.32,16.32,0,0,1,5-4,10.14,10.14,0,0,0,0,4c.6,2.89,2.33,4.32,6,9,1,1.31,2,2.67,3,4,2,2.57,4.69,6.27,8,11a16.62,16.62,0,0,1,1,8q-6.5-8.94-13-18Q552,474,547,467Z"
        transform="translate(-50 -50)"/>
    <path
        class="k"
        d="M614,490c6.71,8.88,11,14.6,12,16,.18.26.77,1.1,1,1s0-.81,0-1c0,0-.41-2.07,1-6,1-2.7,7-5.59,15-6a60.51,60.51,0,0,0-22,0,12.65,12.65,0,0,1-3-1,12.79,12.79,0,0,1-3-2A11.65,11.65,0,0,1,614,490Z"
        transform="translate(-50 -50)"/>
    <path
        class="k"
        d="M459,535c6.54,11.53,11.92,21.39,16,29,14.89,27.78,7.77,16.84,12,24a49.46,49.46,0,0,1,7,18c.5,3.07,1.39,8.59-1,10-2.2,1.3-6.44-1.29-9-4-4.79-5.08-3.72-10.65-6-20-.88-3.61-1.54-4.83-7-17-3.45-7.7-8.46-19-15-34l2-4Z"
        transform="translate(-50 -50)"/>
    <path
        class="l"
        d="M378,366c-.22-4.51,1.85-11.15,8-14a14.36,14.36,0,0,1,16,3l9,18c0,.52.42,8.25-6,13s-13.47,2.2-14,2a93.45,93.45,0,0,1-8-11C379.77,371.81,378.15,369.15,378,366Z"
        transform="translate(-50 -50)"/>
</svg>