<svg xmlns="http://www.w3.org/2000/svg"
     xmlns:xlink="http://www.w3.org/1999/xlink"
     viewBox="0 0 700.39 800.39">
    <defs>
        <style>
            .a,.c,.d{fill:#fff;}.b{fill:#2e3033;}.c{opacity:0.6;}.d{opacity:0.4;}.e{opacity:0.5;}.f{mask:url(#a);}.g{fill:#e08a2d;fill-rule:evenodd;}.h{mask:url(#b);}.i{mask:url(#c);}
        </style>
        <mask
            id="a"
            x="41.53"
            y="635.39"
            width="90"
            height="90"
            maskUnits="userSpaceOnUse">
            <g transform="translate(-49.61)">
                <rect
                    class="a"
                    x="91.14"
                    y="635.39"
                    width="90"
                    height="90"/>
            </g>
        </mask>
        <mask
            id="b"
            x="41.53"
            y="356.1"
            width="90"
            height="90"
            maskUnits="userSpaceOnUse">
            <g transform="translate(-49.61)">
                <rect
                    class="a"
                    x="91.14"
                    y="356.1"
                    width="90"
                    height="90"/>
            </g>
        </mask>
        <mask
            id="c"
            x="41.53"
            y="75"
            width="90"
            height="90"
            maskUnits="userSpaceOnUse">
            <g transform="translate(-49.61)">
                <rect
                    class="a"
                    x="91.14"
                    y="75"
                    width="90"
                    height="90"/>
            </g>
        </mask>
    </defs>
    <rect
        class="b"
        y="560.39"
        width="700"
        height="240"
        rx="48"/>
    <rect
        class="a"
        x="172"
        y="630.92"
        width="483"
        height="24"
        rx="12"/>
    <rect
        class="c"
        x="291.24"
        y="715.17"
        width="364.25"
        height="24"
        rx="12"/>
    <circle
        class="d"
        cx="193.5"
        cy="726.67"
        r="22.5"/>
    <circle
        class="d"
        cx="253.5"
        cy="726.67"
        r="22.5"/>
    <g class="e">
        <g class="f">
            <path
                class="g"
                d="M94.89,680.39a41.25,41.25,0,1,0,41.25-41.25A41.23,41.23,0,0,0,94.89,680.39Zm64.45-12.3a2.83,2.83,0,0,0-4,0l-21,21-.15.11a2.83,2.83,0,0,1-3.86-.11L118.8,677.47l-.11-.12a2.85,2.85,0,0,0-3.87.12,2.61,2.61,0,0,0-.82,1.8v.37l0,.41a2.87,2.87,0,0,0,.78,1.39l12.94,12.94.15.15a6.57,6.57,0,0,0,9.12-.15l22.31-22.31.11-.12A2.83,2.83,0,0,0,159.34,668.09Z"
                transform="translate(-49.61)"/>
        </g>
    </g>
    <rect
        class="b"
        x="0.39"
        y="280"
        width="700"
        height="240"
        rx="48"/>
    <rect
        class="a"
        x="172.39"
        y="350.75"
        width="483"
        height="24"
        rx="12"/>
    <rect
        class="c"
        x="291.63"
        y="435"
        width="364.25"
        height="24"
        rx="12"/>
    <g class="h">
        <path
            class="g"
            d="M94.89,401.1a41.25,41.25,0,1,0,41.25-41.25A41.23,41.23,0,0,0,94.89,401.1Zm5.63,0a35.63,35.63,0,1,0,35.62-35.63A35.6,35.6,0,0,0,100.52,401.1Zm14.31,1,12.93,12.94.15.15a6.57,6.57,0,0,0,9.12-.15l22.31-22.32.11-.11a2.81,2.81,0,0,0-4.09-3.86l-21,21-.15.11a2.83,2.83,0,0,1-3.86-.11L118.8,398.17l-.11-.11a2.84,2.84,0,0,0-3.86.11A2.61,2.61,0,0,0,114,400v.38l0,.41A2.81,2.81,0,0,0,114.83,402.15Z"
            transform="translate(-49.61)"/>
    </g>
    <circle
        class="d"
        cx="193.89"
        cy="446.5"
        r="22.5"/>
    <circle
        class="d"
        cx="253.89"
        cy="446.5"
        r="22.5"/>
    <rect
        class="b"
        x="0.39"
        width="700"
        height="240"
        rx="48"/>
    <rect
        class="a"
        x="172.39"
        y="70.53"
        width="483"
        height="24"
        rx="12"/>
    <rect
        class="c"
        x="291.63"
        y="154.78"
        width="364.25"
        height="24"
        rx="12"/>
    <circle
        class="d"
        cx="193.89"
        cy="166.28"
        r="22.5"/>
    <circle
        class="d"
        cx="253.89"
        cy="166.28"
        r="22.5"/>
    <g class="i">
        <path
            class="g"
            d="M94.89,120a41.25,41.25,0,1,0,41.25-41.25A41.23,41.23,0,0,0,94.89,120Zm5.63,0a35.63,35.63,0,1,0,35.62-35.62A35.61,35.61,0,0,0,100.52,120Z"
            transform="translate(-49.61)"/>
    </g>
</svg>