<svg xmlns="http://www.w3.org/2000/svg" viewBox="0 0 597 792"><path d="M12,0H438a12,12,0,0,1,12,12V602a48,48,0,0,1-48,48H12A12,12,0,0,1,0,638V12A12,12,0,0,1,12,0Z" style="fill:#2e3033"/><path d="M188.36,447.64a90,90,0,1,0,0-127.28,90,90,0,0,0,0,127.28Z" style="fill:#e08a2d;fill-rule:evenodd"/><path d="M286.68,410,226,349.29a6.14,6.14,0,1,0-8.92,8.44l.24.24,26,26-26,26a6.14,6.14,0,1,0,8.44,8.92l.24-.24,26-26,26,26a6.14,6.14,0,0,0,8.92-8.44Zm0-52a6.14,6.14,0,0,0-8.44-8.92l-.24.24-20.24,20.25,8.67,8.64Z" style="fill:#fff;fill-rule:evenodd"/><circle cx="252" cy="222" r="54" style="fill:#e08a2d"/><path d="M279,231.75a3,3,0,0,0-3,3v5.44a6,6,0,0,1-6,5.81H233.81a6,6,0,0,1-5.81-6v-5.4a3,3,0,1,0-6,.15v5.49A12,12,0,0,0,234,252h36.24A12,12,0,0,0,282,240v-5.4A3,3,0,0,0,279,231.75Zm-31.08,6.12a6,6,0,0,0,8.35-.13l13.63-13.63.1-.11a3,3,0,0,0-4.36-4.12L255,230.51V195a3,3,0,0,0-6,0v35.5l-10.6-10.63-.11-.1a3,3,0,0,0-4.13,4.34Z" style="fill:#fff"/><circle cx="252" cy="96" r="54" style="fill:#e08a2d"/><path d="M279,105a3,3,0,0,0-3,3v5.44a6,6,0,0,1-6,5.81H233.81a6,6,0,0,1-5.81-6v-5.39a3,3,0,1,0-6,.14v5.49a12,12,0,0,0,12,11.76h36.24a12,12,0,0,0,11.76-12v-5.39A3,3,0,0,0,279,105ZM238.26,86.49l.11-.11L249,75.76v34.46a3,3,0,1,0,6,0V75.75l10.63,10.63A3,3,0,0,0,270,82.25l-.1-.11L256.24,68.51a6,6,0,0,0-8.35-.13l-.13.13L234.13,82.14a3,3,0,0,0,4.13,4.35Z" style="fill:#fff"/><circle cx="259" cy="367" r="35" style="opacity:0.20000000298023224;isolation:isolate"/><circle cx="259" cy="367" r="25" style="fill:#f2f2f2;opacity:0.800000011920929;isolation:isolate"/><path d="M587,720c-4-10.2-7.27-19.24-9.91-26.86-1.15-3.32-2.18-6.38-3.09-9.14-2.57-7.78-4-12.58-5-19-1.24-7.93-.94-12.73-1-23,0-1.32-.12-18.67-1-29-1.36-15.93-5.72-27.69-9-37-3.46-9.83-7.31-17.56-15-33,0,0-7.93-15.91-18-32-2.41-3.85-1.63-2.26-4-6s-5.61-9.23-8-10a36.54,36.54,0,0,0-4-1h0c-8.83-1.69-19.77-.43-22,0a4.63,4.63,0,0,1-4-1c-9.1-8.48-15.38-14.49-20-19,0,0-2.52-2.46-9-8-4.87-4.16-7-5.73-10-7a30.19,30.19,0,0,0-8-2c-11.66-1.05-21.59,8.59-23,10-2.08-2.2-5.14-5.36-9-9-4.54-4.29-6.81-6.44-9-8-5.67-4.06-16.17-8.11-25-5-10.35,3.65-17.48,16.81-16,32L273,359a16.57,16.57,0,0,0-29,16l81,160c-4.11,7.8-7.44,14.58-10,20-2.47,5.22-3.83,8-4,12-.24,5.43,1.76,9.38,4,14,0,0,5.9,12.17,11,24,3.61,8.39,6.13,15.25,12,24,2.53,3.77,4.14,5.57,16,19l15,17a64.77,64.77,0,0,0,20,18c5.95,3.5,19.14,13.47,51,42,2.14,3.83,4.29,7.81,6.42,11.89,2.55,4.87,5.08,9.89,7.58,15.11,6.7,14,12.3,27.39,17,40a229.22,229.22,0,0,0,126-51Z" style="fill:#f8d1c0"/><path d="M387,514a4.94,4.94,0,0,0,2-2c1.75-3.34-3.6-10.23-5-12-11-13.95-14.88-15.2-20-24a35.84,35.84,0,0,1-5-14,32.45,32.45,0,0,1,0-8c-.54,1-1.26,2.33-2,4a37.07,37.07,0,0,0-3,9,29.45,29.45,0,0,0,0,10c14.42,21.16,25.93,36,29,37A5.74,5.74,0,0,0,387,514Z" style="fill:#f4c1a9"/><path d="M413,467a16.42,16.42,0,0,1,5-4,10,10,0,0,0,0,4c.6,2.89,2.33,4.32,6,9,1,1.31,2,2.67,3,4,2,2.57,4.69,6.27,8,11a16.65,16.65,0,0,1,1,8q-6.5-8.94-13-18Z" style="fill:#f4c1a9"/><path d="M480,490c6.71,8.88,11,14.6,12,16,.18.26.77,1.1,1,1s0-.81,0-1c0,0-.41-2.07,1-6,1-2.7,7-5.59,15-6a60.7,60.7,0,0,0-22,0,12.6,12.6,0,0,1-3-1,12.87,12.87,0,0,1-3-2A11.8,11.8,0,0,1,480,490Z" style="fill:#f4c1a9"/><path d="M325,535c6.54,11.53,11.92,21.39,16,29,14.89,27.78,7.77,16.84,12,24a49.56,49.56,0,0,1,7,18c.5,3.07,1.39,8.59-1,10-2.2,1.3-6.44-1.29-9-4-4.79-5.08-3.72-10.65-6-20-.88-3.61-1.54-4.83-7-17-3.45-7.7-8.46-19-15-34l2-4Z" style="fill:#f4c1a9"/><path d="M244,366c-.22-4.51,1.85-11.15,8-14a14.36,14.36,0,0,1,16,3l9,18c0,.52.42,8.25-6,13a15.38,15.38,0,0,1-14,2,93.84,93.84,0,0,1-8-11C245.77,371.81,244.15,369.15,244,366Z" style="fill:#ffebe2"/></svg>