<svg xmlns="http://www.w3.org/2000/svg"
     xmlns:xlink="http://www.w3.org/1999/xlink"
     viewBox="0 0 700 741.71">
    <defs>
        <style>
            .a,.c,.f,.g{fill:#fff;}.b{fill:#2e3033;}.c{opacity:0.6;}.d{mask:url(#a);}.e{fill:#e08a2d;fill-rule:evenodd;}.f{opacity:0.4;}.g{opacity:0.2;}.h{fill:#f2f2f2;opacity:0.8;}.i{fill:#dcbcb1;}.j{fill:#d8af9f;}.k{fill:#e2d2cc;}
        </style>
        <mask
            id="a"
            x="41.14"
            y="286.1"
            width="90"
            height="90"
            maskUnits="userSpaceOnUse">
            <g transform="translate(-50 -50)">
                <rect
                    class="a"
                    x="91.14"
                    y="336.1"
                    width="90"
                    height="90"/>
            </g>
        </mask>
    </defs>
    <rect
        class="b"
        x="48"
        y="462"
        width="604"
        height="238"
        rx="48"/>
    <rect
        class="b"
        x="48"
        width="604"
        height="198"
        rx="48"/>
    <rect
        class="b"
        y="210"
        width="700"
        height="240"
        rx="48"/>
    <rect
        class="a"
        x="172"
        y="280.75"
        width="483"
        height="24"
        rx="12"/>
    <rect
        class="c"
        x="291.24"
        y="365"
        width="364.25"
        height="24"
        rx="12"/>
    <g class="d">
        <path
            class="e"
            d="M94.89,381.1a41.25,41.25,0,1,0,41.25-41.25A41.23,41.23,0,0,0,94.89,381.1Zm5.63,0a35.63,35.63,0,1,0,35.62-35.63A35.6,35.6,0,0,0,100.52,381.1Zm14.31,1,12.93,12.94.15.15a6.57,6.57,0,0,0,9.12-.15l22.31-22.32.11-.11a2.81,2.81,0,0,0-4.09-3.86l-21,21-.15.11a2.83,2.83,0,0,1-3.86-.11L118.8,378.17l-.11-.11a2.84,2.84,0,0,0-3.86.11A2.61,2.61,0,0,0,114,380v.38l0,.41A2.81,2.81,0,0,0,114.83,382.15Z"
            transform="translate(-50 -50)"/>
    </g>
    <circle
        class="f"
        cx="193.5"
        cy="376.5"
        r="22.5"/>
    <circle
        class="f"
        cx="253.5"
        cy="376.5"
        r="22.5"/>
    <circle
        class="g"
        cx="84.75"
        cy="316.71"
        r="35"/>
    <circle
        class="h"
        cx="84.75"
        cy="316.71"
        r="25"/>
    <path
        class="i"
        d="M462.75,719.71c-4-10.2-7.26-19.24-9.91-26.86-1.14-3.32-2.17-6.38-3.09-9.14-2.57-7.78-4-12.58-5-19-1.23-7.93-.94-12.73-1-23,0-1.32-.12-18.67-1-29-1.35-15.93-5.72-27.69-9-37-3.46-9.83-7.3-17.56-15-33,0,0-7.92-15.91-18-32-2.41-3.85-1.63-2.26-4-6s-5.61-9.23-8-10a35.8,35.8,0,0,0-4-1h0c-8.83-1.69-19.76-.43-22,0a4.83,4.83,0,0,1-2,0,4.92,4.92,0,0,1-2-1c-9.1-8.48-15.37-14.49-20-19,0,0-2.52-2.46-9-8-4.86-4.16-7-5.73-10-7a30,30,0,0,0-8-2c-11.65-1-21.59,8.6-23,10-2.08-2.2-5.14-5.36-9-9-4.54-4.29-6.81-6.44-9-8-5.67-4.06-16.17-8.11-25-5-10.34,3.65-17.48,16.81-16,32l-81-118a16.57,16.57,0,0,0-29,16l81,160c-4.11,7.8-7.43,14.58-10,20-2.47,5.22-3.82,8-4,12-.23,5.43,1.76,9.38,4,14,0,0,5.91,12.17,11,24,3.62,8.39,6.14,15.25,12,24,2.53,3.77,4.15,5.57,16,19l15,17a65.67,65.67,0,0,0,9,10,64.43,64.43,0,0,0,11,8c5.95,3.5,19.14,13.47,51,42q3.22,5.76,6.42,11.89c2.55,4.87,5.08,9.89,7.58,15.11,6.7,14,12.3,27.39,17,40a229.24,229.24,0,0,0,126-51Q467.76,730.21,462.75,719.71Z"
        transform="translate(-50 -50)"/>
    <path
        class="j"
        d="M262.75,513.71a4.93,4.93,0,0,0,2-2c1.76-3.34-3.6-10.23-5-12-11-13.95-14.87-15.2-20-24a35.83,35.83,0,0,1-5-14,33.88,33.88,0,0,1,0-8c-.54,1-1.25,2.33-2,4a37.7,37.7,0,0,0-3,9,29.25,29.25,0,0,0,0,10c14.42,21.16,25.93,36,29,37A5.74,5.74,0,0,0,262.75,513.71Z"
        transform="translate(-50 -50)"/>
    <path
        class="j"
        d="M288.75,466.71a16.32,16.32,0,0,1,5-4,10.14,10.14,0,0,0,0,4c.61,2.89,2.33,4.32,6,9,1,1.31,2,2.67,3,4,1.95,2.57,4.7,6.27,8,11a16.57,16.57,0,0,1,1,4,16.05,16.05,0,0,1,0,4q-6.5-8.94-13-18Q293.72,473.69,288.75,466.71Z"
        transform="translate(-50 -50)"/>
    <path
        class="j"
        d="M355.75,489.71c6.71,8.88,11,14.6,12,16,.19.26.77,1.1,1,1s0-.81,0-1c0,0-.4-2.07,1-6,1-2.7,7-5.59,15-6a60.06,60.06,0,0,0-12-1,60.79,60.79,0,0,0-10,1,12.94,12.94,0,0,1-3-1,12.75,12.75,0,0,1-4-3Z"
        transform="translate(-50 -50)"/>
    <path
        class="j"
        d="M200.75,534.71c6.55,11.53,11.93,21.39,16,29,14.89,27.78,7.78,16.85,12,24a49.46,49.46,0,0,1,7,18c.5,3.07,1.4,8.59-1,10-2.19,1.3-6.44-1.29-9-4-4.79-5.08-3.72-10.65-6-20-.88-3.61-1.54-4.83-7-17-3.45-7.69-8.46-19-15-34l2-4Z"
        transform="translate(-50 -50)"/>
    <path
        class="k"
        d="M119.75,365.71c-.22-4.51,1.85-11.15,8-14a14.35,14.35,0,0,1,16,3l9,18c0,.52.43,8.25-6,13s-13.46,2.2-14,2a94.62,94.62,0,0,1-8-11C121.52,371.52,119.91,368.86,119.75,365.71Z"
        transform="translate(-50 -50)"/>
</svg>