<svg xmlns="http://www.w3.org/2000/svg" viewBox="0 0 700.39 800.39"><rect y="560.39" width="700" height="240" rx="48" style="fill:#2e3033"/><path d="M184,630.92H643a12,12,0,0,1,12,12h0a12,12,0,0,1-12,12H184a12,12,0,0,1-12-12h0A12,12,0,0,1,184,630.92Z" style="fill:#fff"/><path d="M303.24,715.17H643.49a12,12,0,0,1,12,12h0a12,12,0,0,1-12,12H303.24a12,12,0,0,1-12-12h0A12,12,0,0,1,303.24,715.17Z" style="fill:#fff;opacity:0.6000000238418579;isolation:isolate"/><circle cx="193.5" cy="726.67" r="22.5" style="fill:#fff;opacity:0.4000000059604645;isolation:isolate"/><circle cx="253.5" cy="726.67" r="22.5" style="fill:#fff;opacity:0.4000000059604645;isolation:isolate"/><g style="opacity:0.5"><path d="M86.53,639.14a41.23,41.23,0,0,0-41.25,41.21v0a41.25,41.25,0,1,0,41.25-41.25ZM109.8,672l-.11.12L87.38,694.38a6.57,6.57,0,0,1-9.12.15l-.15-.15L65.17,681.44a2.8,2.8,0,0,1-.78-1.39v-.78a2.63,2.63,0,0,1,.82-1.8,2.85,2.85,0,0,1,3.87-.12l.11.12,11.53,11.62a2.83,2.83,0,0,0,3.86.11l.15-.11,21-21A2.81,2.81,0,0,1,109.8,672Z" style="fill:#e08a2d;fill-rule:evenodd"/></g><rect x="0.39" y="280" width="700" height="240" rx="48" style="fill:#2e3033"/><path d="M184.39,350.75h459a12,12,0,0,1,12,12h0a12,12,0,0,1-12,12h-459a12,12,0,0,1-12-12h0A12,12,0,0,1,184.39,350.75Z" style="fill:#fff"/><path d="M303.63,435H643.88a12,12,0,0,1,12,12h0a12,12,0,0,1-12,12H303.63a12,12,0,0,1-12-12h0A12,12,0,0,1,303.63,435Z" style="fill:#fff;opacity:0.6000000238418579;isolation:isolate"/><path d="M86.53,359.85a41.23,41.23,0,0,0-41.25,41.21v0a41.25,41.25,0,1,0,41.25-41.25Zm0,76.88A35.63,35.63,0,0,1,50.91,401.1v-.05a35.6,35.6,0,0,1,35.62-35.58h0a35.63,35.63,0,1,1,0,71.26Zm19.21-48-21,21-.15.11a2.83,2.83,0,0,1-3.86-.11L69.19,398.17l-.11-.11a2.84,2.84,0,0,0-3.86.11,2.59,2.59,0,0,0-.83,1.83v.79a2.83,2.83,0,0,0,.83,1.36v0L78.15,415l.15.15a6.57,6.57,0,0,0,9.12-.15l22.31-22.32.11-.11a2.81,2.81,0,0,0-4.09-3.86Z" style="fill:#e08a2d;fill-rule:evenodd"/><circle cx="193.89" cy="446.5" r="22.5" style="fill:#fff;opacity:0.4000000059604645;isolation:isolate"/><circle cx="253.89" cy="446.5" r="22.5" transform="translate(-227.51 625.59) rotate(-80.78)" style="fill:#fff;opacity:0.4000000059604645;isolation:isolate"/><rect x="0.39" width="700" height="240" rx="48" style="fill:#2e3033"/><path d="M184.39,70.53h459a12,12,0,0,1,12,12h0a12,12,0,0,1-12,12h-459a12,12,0,0,1-12-12h0A12,12,0,0,1,184.39,70.53Z" style="fill:#fff"/><path d="M303.63,154.78H643.88a12,12,0,0,1,12,12h0a12,12,0,0,1-12,12H303.63a12,12,0,0,1-12-12h0A12,12,0,0,1,303.63,154.78Z" style="fill:#fff;opacity:0.6000000238418579;isolation:isolate"/><circle cx="193.89" cy="166.28" r="22.5" style="fill:#fff;opacity:0.4000000059604645;isolation:isolate"/><circle cx="253.89" cy="166.28" r="22.5" transform="translate(49.09 390.26) rotate(-80.78)" style="fill:#fff;opacity:0.4000000059604645;isolation:isolate"/><path d="M45.28,120A41.25,41.25,0,1,0,86.53,78.75,41.25,41.25,0,0,0,45.28,120Zm5.63,0A35.63,35.63,0,1,0,86.55,84.38h0A35.61,35.61,0,0,0,50.91,120Z" style="fill:#e08a2d;fill-rule:evenodd"/></svg>