<svg xmlns="http://www.w3.org/2000/svg"
     viewBox="0 0 700 700">
    <defs>
        <style>
            .a{fill:#2e3033;}.b{fill:#fff;opacity:0.2;}.c{fill:#f2f2f2;opacity:0.8;}.d{fill:#dcbcb1;}.e{fill:#d8af9f;}.f{fill:#e2d2cc;}
        </style>
    </defs>
    <rect
        class="a"
        width="80.33"
        height="122.84"
        rx="24"/>
    <ellipse
        class="b"
        cx="40.16"
        cy="37.12"
        rx="28.69"
        ry="26.51"/>
    <rect
        class="b"
        x="11.48"
        y="74.23"
        width="57.38"
        height="38"
        rx="12"/>
    <rect
        class="a"
        x="103.28"
        width="80.33"
        height="122.84"
        rx="24"/>
    <ellipse
        class="b"
        cx="143.44"
        cy="37.12"
        rx="28.69"
        ry="26.51"/>
    <rect
        class="b"
        x="114.75"
        y="74.23"
        width="57.38"
        height="38"
        rx="12"/>
    <rect
        class="a"
        x="206.56"
        width="80.33"
        height="122.84"
        rx="24"/>
    <ellipse
        class="b"
        cx="246.72"
        cy="37.12"
        rx="28.69"
        ry="26.51"/>
    <rect
        class="b"
        x="218.03"
        y="74.23"
        width="57.38"
        height="38"
        rx="12"/>
    <rect
        class="a"
        x="309.84"
        width="80.33"
        height="122.84"
        rx="24"/>
    <ellipse
        class="b"
        cx="350"
        cy="37.12"
        rx="28.69"
        ry="26.51"/>
    <rect
        class="b"
        x="321.31"
        y="74.23"
        width="57.38"
        height="38"
        rx="12"/>
    <rect
        class="a"
        x="413.11"
        width="80.33"
        height="122.84"
        rx="24"/>
    <ellipse
        class="b"
        cx="453.28"
        cy="37.12"
        rx="28.69"
        ry="26.51"/>
    <rect
        class="b"
        x="424.59"
        y="74.23"
        width="57.38"
        height="38"
        rx="12"/>
    <rect
        class="a"
        x="516.39"
        width="80.33"
        height="122.84"
        rx="24"/>
    <ellipse
        class="b"
        cx="556.56"
        cy="37.12"
        rx="28.69"
        ry="26.51"/>
    <rect
        class="b"
        x="527.87"
        y="74.23"
        width="57.38"
        height="38"
        rx="12"/>
    <rect
        class="a"
        x="619.67"
        width="80.33"
        height="122.84"
        rx="24"/>
    <ellipse
        class="b"
        cx="659.84"
        cy="37.12"
        rx="28.69"
        ry="26.51"/>
    <rect
        class="b"
        x="631.15"
        y="74.23"
        width="57.38"
        height="38"
        rx="12"/>
    <rect
        class="a"
        y="144.05"
        width="80.33"
        height="122.84"
        rx="24"/>
    <ellipse
        class="b"
        cx="40.16"
        cy="181.17"
        rx="28.69"
        ry="26.51"/>
    <rect
        class="b"
        x="11.48"
        y="218.28"
        width="57.38"
        height="38"
        rx="12"/>
    <rect
        class="a"
        x="103.28"
        y="144.05"
        width="80.33"
        height="122.84"
        rx="24"/>
    <ellipse
        class="b"
        cx="143.44"
        cy="181.17"
        rx="28.69"
        ry="26.51"/>
    <rect
        class="b"
        x="114.75"
        y="218.28"
        width="57.38"
        height="38"
        rx="12"/>
    <rect
        class="a"
        x="206.56"
        y="144.05"
        width="80.33"
        height="122.84"
        rx="24"/>
    <ellipse
        class="b"
        cx="246.72"
        cy="181.17"
        rx="28.69"
        ry="26.51"/>
    <rect
        class="b"
        x="218.03"
        y="218.28"
        width="57.38"
        height="38"
        rx="12"/>
    <rect
        class="a"
        x="309.84"
        y="144.05"
        width="80.33"
        height="122.84"
        rx="24"/>
    <ellipse
        class="b"
        cx="350"
        cy="181.17"
        rx="28.69"
        ry="26.51"/>
    <rect
        class="b"
        x="321.31"
        y="218.28"
        width="57.38"
        height="38"
        rx="12"/>
    <rect
        class="a"
        x="413.11"
        y="144.05"
        width="80.33"
        height="122.84"
        rx="24"/>
    <ellipse
        class="b"
        cx="453.28"
        cy="181.17"
        rx="28.69"
        ry="26.51"/>
    <rect
        class="b"
        x="424.59"
        y="218.28"
        width="57.38"
        height="38"
        rx="12"/>
    <rect
        class="a"
        x="516.39"
        y="144.05"
        width="80.33"
        height="122.84"
        rx="24"/>
    <ellipse
        class="b"
        cx="556.56"
        cy="181.17"
        rx="28.69"
        ry="26.51"/>
    <rect
        class="b"
        x="527.87"
        y="218.28"
        width="57.38"
        height="38"
        rx="12"/>
    <rect
        class="a"
        x="619.67"
        y="144.05"
        width="80.33"
        height="122.84"
        rx="24"/>
    <ellipse
        class="b"
        cx="659.84"
        cy="181.17"
        rx="28.69"
        ry="26.51"/>
    <rect
        class="b"
        x="631.15"
        y="218.28"
        width="57.38"
        height="38"
        rx="12"/>
    <rect
        class="a"
        y="288.1"
        width="80.33"
        height="122.84"
        rx="24"/>
    <ellipse
        class="b"
        cx="40.16"
        cy="325.22"
        rx="28.69"
        ry="26.51"/>
    <rect
        class="b"
        x="11.48"
        y="362.33"
        width="57.38"
        height="38"
        rx="12"/>
    <rect
        class="a"
        x="103.28"
        y="288.1"
        width="80.33"
        height="122.84"
        rx="24"/>
    <ellipse
        class="b"
        cx="143.44"
        cy="325.22"
        rx="28.69"
        ry="26.51"/>
    <rect
        class="b"
        x="114.75"
        y="362.33"
        width="57.38"
        height="38"
        rx="12"/>
    <rect
        class="a"
        x="206.56"
        y="288.1"
        width="80.33"
        height="122.84"
        rx="24"/>
    <ellipse
        class="b"
        cx="246.72"
        cy="325.22"
        rx="28.69"
        ry="26.51"/>
    <rect
        class="b"
        x="218.03"
        y="362.33"
        width="57.38"
        height="38"
        rx="12"/>
    <rect
        class="a"
        x="309.84"
        y="288.1"
        width="80.33"
        height="122.84"
        rx="24"/>
    <ellipse
        class="b"
        cx="350"
        cy="325.22"
        rx="28.69"
        ry="26.51"/>
    <rect
        class="b"
        x="321.31"
        y="362.33"
        width="57.38"
        height="38"
        rx="12"/>
    <rect
        class="a"
        x="413.11"
        y="288.1"
        width="80.33"
        height="122.84"
        rx="24"/>
    <ellipse
        class="b"
        cx="453.28"
        cy="325.22"
        rx="28.69"
        ry="26.51"/>
    <rect
        class="b"
        x="424.59"
        y="362.33"
        width="57.38"
        height="38"
        rx="12"/>
    <rect
        class="a"
        x="516.39"
        y="288.1"
        width="80.33"
        height="122.84"
        rx="24"/>
    <ellipse
        class="b"
        cx="556.56"
        cy="325.22"
        rx="28.69"
        ry="26.51"/>
    <rect
        class="b"
        x="527.87"
        y="362.33"
        width="57.38"
        height="38"
        rx="12"/>
    <rect
        class="a"
        x="619.67"
        y="288.1"
        width="80.33"
        height="122.84"
        rx="24"/>
    <ellipse
        class="b"
        cx="659.84"
        cy="325.22"
        rx="28.69"
        ry="26.51"/>
    <rect
        class="b"
        x="631.15"
        y="362.33"
        width="57.38"
        height="38"
        rx="12"/>
    <rect
        class="a"
        y="432.4"
        width="80.33"
        height="122.84"
        rx="24"/>
    <ellipse
        class="b"
        cx="40.16"
        cy="469.52"
        rx="28.69"
        ry="26.51"/>
    <rect
        class="b"
        x="11.48"
        y="506.63"
        width="57.38"
        height="38"
        rx="12"/>
    <rect
        class="a"
        x="103.28"
        y="432.4"
        width="80.33"
        height="122.84"
        rx="24"/>
    <ellipse
        class="b"
        cx="143.44"
        cy="469.52"
        rx="28.69"
        ry="26.51"/>
    <rect
        class="b"
        x="114.75"
        y="506.63"
        width="57.38"
        height="38"
        rx="12"/>
    <rect
        class="a"
        x="206.56"
        y="432.4"
        width="80.33"
        height="122.84"
        rx="24"/>
    <ellipse
        class="b"
        cx="246.72"
        cy="469.52"
        rx="28.69"
        ry="26.51"/>
    <rect
        class="b"
        x="218.03"
        y="506.63"
        width="57.38"
        height="38"
        rx="12"/>
    <rect
        class="a"
        x="309.84"
        y="432.4"
        width="80.33"
        height="122.84"
        rx="24"/>
    <ellipse
        class="b"
        cx="350"
        cy="469.52"
        rx="28.69"
        ry="26.51"/>
    <rect
        class="b"
        x="321.31"
        y="506.63"
        width="57.38"
        height="38"
        rx="12"/>
    <rect
        class="a"
        x="413.11"
        y="432.4"
        width="80.33"
        height="122.84"
        rx="24"/>
    <ellipse
        class="b"
        cx="453.28"
        cy="469.52"
        rx="28.69"
        ry="26.51"/>
    <rect
        class="b"
        x="424.59"
        y="506.63"
        width="57.38"
        height="38"
        rx="12"/>
    <rect
        class="a"
        x="516.39"
        y="432.4"
        width="80.33"
        height="122.84"
        rx="24"/>
    <ellipse
        class="b"
        cx="556.56"
        cy="469.52"
        rx="28.69"
        ry="26.51"/>
    <rect
        class="b"
        x="527.87"
        y="506.63"
        width="57.38"
        height="38"
        rx="12"/>
    <rect
        class="a"
        x="619.67"
        y="432.4"
        width="80.33"
        height="122.84"
        rx="24"/>
    <ellipse
        class="b"
        cx="659.84"
        cy="469.52"
        rx="28.69"
        ry="26.51"/>
    <rect
        class="b"
        x="631.15"
        y="506.63"
        width="57.38"
        height="38"
        rx="12"/>
    <rect
        class="a"
        y="577.16"
        width="80.33"
        height="122.84"
        rx="24"/>
    <ellipse
        class="b"
        cx="40.16"
        cy="614.28"
        rx="28.69"
        ry="26.51"/>
    <rect
        class="b"
        x="11.48"
        y="651.39"
        width="57.38"
        height="38"
        rx="12"/>
    <rect
        class="a"
        x="103.28"
        y="577.16"
        width="80.33"
        height="122.84"
        rx="24"/>
    <ellipse
        class="b"
        cx="143.44"
        cy="614.28"
        rx="28.69"
        ry="26.51"/>
    <rect
        class="b"
        x="114.75"
        y="651.39"
        width="57.38"
        height="38"
        rx="12"/>
    <rect
        class="a"
        x="206.56"
        y="577.16"
        width="80.33"
        height="122.84"
        rx="24"/>
    <ellipse
        class="b"
        cx="246.72"
        cy="614.28"
        rx="28.69"
        ry="26.51"/>
    <rect
        class="b"
        x="218.03"
        y="651.39"
        width="57.38"
        height="38"
        rx="12"/>
    <rect
        class="a"
        x="309.84"
        y="577.16"
        width="80.33"
        height="122.84"
        rx="24"/>
    <ellipse
        class="b"
        cx="350"
        cy="614.28"
        rx="28.69"
        ry="26.51"/>
    <rect
        class="b"
        x="321.31"
        y="651.39"
        width="57.38"
        height="38"
        rx="12"/>
    <rect
        class="a"
        x="413.11"
        y="577.16"
        width="80.33"
        height="122.84"
        rx="24"/>
    <ellipse
        class="b"
        cx="453.28"
        cy="614.28"
        rx="28.69"
        ry="26.51"/>
    <rect
        class="b"
        x="424.59"
        y="651.39"
        width="57.38"
        height="38"
        rx="12"/>
    <rect
        class="a"
        x="516.39"
        y="577.16"
        width="80.33"
        height="122.84"
        rx="24"/>
    <ellipse
        class="b"
        cx="556.56"
        cy="614.28"
        rx="28.69"
        ry="26.51"/>
    <rect
        class="b"
        x="527.87"
        y="651.39"
        width="57.38"
        height="38"
        rx="12"/>
    <rect
        class="a"
        x="619.67"
        y="577.16"
        width="80.33"
        height="122.84"
        rx="24"/>
    <ellipse
        class="b"
        cx="659.84"
        cy="614.28"
        rx="28.69"
        ry="26.51"/>
    <rect
        class="b"
        x="631.15"
        y="651.39"
        width="57.38"
        height="38"
        rx="12"/>
    <rect
        class="b"
        x="365"
        y="338"
        width="70"
        height="200"
        rx="35"
        transform="translate(750 826) rotate(180)"/>
    <circle
        class="b"
        cx="350"
        cy="453"
        r="35"/>
    <circle
        class="c"
        cx="350"
        cy="453"
        r="25"/>
    <rect
        class="b"
        x="315"
        y="155"
        width="70"
        height="200"
        rx="35"/>
    <circle
        class="b"
        cx="350"
        cy="190"
        r="35"/>
    <circle
        class="c"
        cx="350"
        cy="190"
        r="25"/>
    <path
        class="d"
        d="M728,593c-4-10.2-7.27-19.24-9.91-26.86-1.15-3.32-2.18-6.38-3.09-9.14-2.57-7.78-4-12.58-5-19-1.24-7.93-.94-12.73-1-23,0-1.32-.12-18.67-1-29-1.36-15.93-5.72-27.69-9-37-3.46-9.83-7.31-17.56-15-33,0,0-7.93-15.91-18-32-2.41-3.85-1.63-2.26-4-6s-5.61-9.23-8-10a35.8,35.8,0,0,0-4-1h0c-8.83-1.69-19.77-.43-22,0a4.61,4.61,0,0,1-4-1c-9.1-8.48-15.38-14.49-20-19,0,0-2.52-2.46-9-8-4.87-4.16-7-5.73-10-7a30,30,0,0,0-8-2c-11.66-1.05-21.59,8.59-23,10-2.08-2.2-5.14-5.36-9-9-4.54-4.29-6.81-6.44-9-8-5.67-4.06-16.17-8.11-25-5-10.35,3.65-17.48,16.81-16,32L414,232a16.57,16.57,0,0,0-29,16l81,160c-4.11,7.8-7.44,14.58-10,20-2.47,5.22-3.83,8-4,12-.24,5.43,1.76,9.38,4,14,0,0,5.9,12.17,11,24,3.61,8.39,6.13,15.25,12,24,2.53,3.77,4.14,5.57,16,19l15,17a64.79,64.79,0,0,0,20,18c6,3.5,19.14,13.47,51,42,2.14,3.83,4.29,7.81,6.42,11.89,2.55,4.87,5.08,9.89,7.58,15.11,6.7,14,12.3,27.39,17,40a229.24,229.24,0,0,0,126-51Z"
        transform="translate(-50 -50)"/>
    <path
        class="e"
        d="M528,387a4.93,4.93,0,0,0,2-2c1.75-3.34-3.6-10.23-5-12-11-13.95-14.88-15.2-20-24a35.83,35.83,0,0,1-5-14,32.83,32.83,0,0,1,0-8c-.54,1-1.26,2.33-2,4a37.26,37.26,0,0,0-3,9,29.25,29.25,0,0,0,0,10c14.42,21.16,25.93,36,29,37A5.75,5.75,0,0,0,528,387Z"
        transform="translate(-50 -50)"/>
    <path
        class="e"
        d="M554,340a16.32,16.32,0,0,1,5-4,10.14,10.14,0,0,0,0,4c.6,2.89,2.33,4.32,6,9,1,1.31,2,2.67,3,4,2,2.57,4.69,6.27,8,11a16.62,16.62,0,0,1,1,8q-6.5-8.94-13-18Q559,347,554,340Z"
        transform="translate(-50 -50)"/>
    <path
        class="e"
        d="M621,363c6.71,8.88,11,14.6,12,16,.18.26.77,1.1,1,1s0-.81,0-1c0,0-.41-2.07,1-6,1-2.7,7-5.59,15-6a60.51,60.51,0,0,0-22,0,12.65,12.65,0,0,1-3-1,12.79,12.79,0,0,1-3-2A11.65,11.65,0,0,1,621,363Z"
        transform="translate(-50 -50)"/>
    <path
        class="e"
        d="M466,408c6.54,11.53,11.92,21.39,16,29,14.89,27.78,7.77,16.84,12,24a49.46,49.46,0,0,1,7,18c.5,3.07,1.39,8.59-1,10-2.2,1.3-6.44-1.29-9-4-4.79-5.08-3.72-10.65-6-20-.88-3.61-1.54-4.83-7-17-3.45-7.7-8.46-19-15-34,.67-1.33,1.33-2.67,2-4C465.33,409.33,465.67,408.67,466,408Z"
        transform="translate(-50 -50)"/>
    <path
        class="f"
        d="M385,239c-.22-4.51,1.85-11.15,8-14a14.36,14.36,0,0,1,16,3l9,18c0,.52.42,8.25-6,13s-13.47,2.2-14,2a93.45,93.45,0,0,1-8-11C386.77,244.81,385.15,242.15,385,239Z"
        transform="translate(-50 -50)"/>
</svg>